<?xml version="1.0" standalone="no"?>
<!DOCTYPE svg PUBLIC "-//W3C//DTD SVG 20010904//EN"
 "http://www.w3.org/TR/2001/REC-SVG-20010904/DTD/svg10.dtd">
<svg version="1.0" xmlns="http://www.w3.org/2000/svg"
 width="1080.000000pt" height="1080.000000pt" viewBox="0 0 1080.000000 1080.000000"
 preserveAspectRatio="xMidYMid meet">

<g transform="translate(0.000000,1080.000000) scale(0.100000,-0.100000)"
fill="#000000" stroke="none">
<path d="M5430 10160 c-47 -3 -95 -11 -107 -18 -12 -7 -30 -12 -41 -12 -11 0
-54 -16 -96 -35 -43 -19 -82 -35 -88 -35 -6 0 -34 -15 -62 -33 -28 -19 -67
-42 -86 -53 -19 -10 -56 -35 -82 -56 -25 -21 -58 -43 -72 -50 -15 -6 -40 -30
-57 -52 -28 -39 -29 -41 -9 -48 21 -8 28 -28 10 -28 -6 0 -19 5 -29 12 -15 9
-23 9 -35 -1 -9 -8 -16 -19 -16 -27 0 -7 -8 -30 -17 -50 -14 -28 -15 -38 -5
-41 6 -3 12 -11 12 -19 0 -14 -9 -17 -45 -15 -15 1 -24 -8 -35 -36 -8 -21 -13
-43 -12 -50 2 -6 -6 -14 -16 -17 -10 -4 -26 -22 -35 -41 -9 -19 -21 -35 -26
-35 -5 0 -22 -26 -39 -57 -16 -32 -42 -79 -56 -105 -15 -26 -26 -53 -25 -60 1
-7 -1 -20 -4 -28 -3 -8 -10 -55 -16 -105 -10 -98 -2 -175 24 -245 9 -25 20
-58 25 -75 38 -133 53 -181 61 -189 17 -18 9 -26 -25 -26 -38 0 -96 -18 -96
-30 0 -13 47 -21 90 -14 37 6 40 5 42 -17 2 -39 -3 -83 -13 -101 -5 -10 -5
-26 0 -40 9 -23 9 -23 24 22 3 9 6 6 6 -8 1 -13 12 -56 25 -95 13 -40 26 -81
30 -92 3 -11 3 23 0 75 -3 52 -14 124 -25 159 -44 146 -58 356 -35 541 2 19
16 80 31 135 15 55 29 111 30 125 8 65 50 181 102 285 51 100 163 225 202 225
10 0 40 12 67 26 29 15 73 27 109 31 33 3 99 18 147 33 84 27 130 29 166 6 6
-3 13 -2 17 4 4 6 11 8 16 4 5 -3 16 0 24 6 12 10 15 10 16 -1 0 -8 7 3 16 24
16 40 24 44 45 24 17 -17 57 -28 63 -16 3 4 18 6 34 3 21 -5 30 -2 35 12 6 16
9 14 23 -14 l16 -33 17 26 c20 31 37 17 20 -15 -8 -16 -8 -20 4 -20 8 0 19 6
23 13 4 6 18 17 29 24 19 10 21 10 17 -8 -3 -10 -9 -19 -14 -19 -5 0 -9 -4 -9
-10 0 -5 7 -10 15 -10 8 0 15 5 15 10 0 7 7 7 21 0 11 -7 27 -9 34 -6 8 3 17
1 20 -4 3 -5 42 -7 88 -4 52 4 96 1 122 -7 268 -82 320 -115 375 -237 34 -74
35 -79 15 -62 -23 19 -19 -4 10 -62 23 -47 24 -49 5 -43 -30 10 -26 -29 5 -49
26 -17 33 -36 13 -36 -6 0 -20 8 -30 17 -18 16 -18 16 -12 -3 11 -31 24 -43
40 -37 8 3 26 -2 40 -12 32 -21 20 -37 -30 -38 -20 -1 -36 -4 -36 -9 0 -4 27
-29 60 -55 33 -26 60 -56 60 -65 0 -10 11 -25 24 -33 54 -36 88 -180 91 -385
1 -89 6 -135 17 -161 17 -39 10 -59 -21 -59 -11 0 -10 -4 5 -15 10 -8 29 -15
42 -15 29 0 101 31 85 37 -15 6 -16 22 -3 43 7 12 13 11 35 -10 24 -22 27 -23
42 -7 13 13 18 50 25 194 5 98 6 207 3 243 -3 36 -8 108 -11 160 -6 112 -36
307 -57 367 -8 24 -30 64 -48 90 -43 60 -166 183 -249 250 -36 28 -85 70 -110
93 -56 52 -176 122 -255 149 -33 11 -85 30 -115 41 -138 53 -248 82 -320 85
-25 2 -83 4 -130 7 -47 2 -123 1 -170 -2z m207 -312 c-3 -8 -6 -5 -6 6 -1 11
2 17 5 13 3 -3 4 -12 1 -19z m-857 -58 c0 -5 -5 -10 -11 -10 -5 0 -7 5 -4 10
3 6 8 10 11 10 2 0 4 -4 4 -10z m1820 -720 c0 -5 -2 -10 -4 -10 -3 0 -8 5 -11
10 -3 6 -1 10 4 10 6 0 11 -4 11 -10z"/>
<path d="M5670 9769 c0 -5 5 -7 10 -4 6 3 10 8 10 11 0 2 -4 4 -10 4 -5 0 -10
-5 -10 -11z"/>
<path d="M6190 9681 c0 -9 34 -21 60 -21 9 1 5 7 -10 15 -29 16 -50 19 -50 6z"/>
<path d="M5705 8930 c-33 -10 -62 -19 -65 -20 -3 -1 -15 -1 -27 0 -16 1 -26
-6 -33 -24 -12 -32 -24 -34 -15 -3 5 18 -1 15 -30 -16 l-36 -38 2 -120 c1 -86
6 -124 15 -134 8 -7 14 -20 14 -28 0 -22 31 -44 73 -51 26 -5 37 -12 34 -20
-10 -25 9 -34 91 -41 71 -6 82 -5 82 8 0 9 -8 21 -17 26 -16 9 -16 10 -1 11 9
0 18 5 20 12 6 17 38 1 38 -19 1 -26 35 -63 67 -73 28 -8 28 -8 3 -9 -21 -1
-22 -3 -10 -12 12 -9 12 -10 -4 -5 -10 4 -49 11 -85 16 -71 10 -110 -3 -42
-15 25 -4 41 -12 41 -21 0 -11 5 -11 26 -2 22 10 28 10 38 -3 9 -13 15 -14 29
-5 15 9 21 7 32 -8 13 -18 15 -18 21 -2 5 12 14 16 30 12 12 -3 26 -2 29 4 4
6 -5 10 -21 10 -41 0 -25 9 83 45 92 32 99 33 117 17 18 -16 19 -16 12 17 l-6
34 72 -5 73 -6 -50 15 c-60 18 -64 21 -45 33 12 8 9 10 -11 10 -15 0 -32 6
-38 14 -7 8 -42 34 -78 58 -59 38 -77 44 -155 54 -69 8 -102 8 -155 -3 -37 -8
-72 -18 -79 -24 -7 -5 -26 -11 -44 -14 -17 -2 -37 -8 -44 -14 -6 -5 -27 -10
-46 -9 -19 0 -45 -3 -57 -7 -21 -7 -23 -4 -23 24 0 18 5 31 13 31 7 1 5 6 -5
14 -10 7 -18 16 -18 20 0 9 43 7 59 -3 8 -5 24 -3 40 5 14 8 37 14 51 13 28 0
33 2 -65 -37 -35 -14 -45 -23 -34 -27 20 -8 133 10 156 25 16 10 15 11 -4 7
-15 -3 -23 0 -23 8 0 15 15 21 70 30 36 6 101 32 110 45 3 4 14 12 25 18 18
10 18 11 -10 12 l-30 1 34 14 c18 8 61 15 95 15 34 1 72 7 86 15 15 9 58 15
110 16 47 2 66 4 43 6 -29 3 -43 9 -43 19 0 10 14 14 54 14 51 0 82 -13 54
-22 -9 -3 -8 -9 4 -21 17 -17 48 -13 48 5 0 19 -73 77 -116 92 -38 13 -42 13
-37 -1 5 -13 1 -15 -23 -9 -16 4 -54 12 -84 17 -30 5 -56 14 -58 19 -2 6 -22
10 -45 9 -33 0 -38 -2 -22 -9 13 -5 -9 -7 -57 -5 -43 2 -80 -1 -83 -6 -4 -5
-16 -9 -28 -8 l-22 0 23 9 c63 26 -8 25 -93 0z m383 -325 c49 -29 39 -34 -25
-12 -39 13 -86 20 -145 21 -48 1 -79 4 -70 8 9 4 60 7 112 5 72 -2 103 -7 128
-22z m-358 -65 c0 -5 -18 -19 -40 -30 -22 -11 -40 -16 -40 -10 0 7 38 32 78
49 1 1 2 -3 2 -9z m276 -27 c-10 -10 -19 5 -10 18 6 11 8 11 12 0 2 -7 1 -15
-2 -18z m148 -24 c-3 -5 3 -6 12 -2 11 4 15 2 12 -7 -6 -18 -114 -77 -123 -68
-4 3 1 21 11 40 10 18 17 46 16 61 l-2 29 39 -23 c22 -12 38 -26 35 -30z
m-384 -29 c0 -5 -5 -10 -11 -10 -5 0 -7 5 -4 10 3 6 8 10 11 10 2 0 4 -4 4
-10z"/>
<path d="M6070 8940 c8 -5 20 -10 25 -10 6 0 3 5 -5 10 -8 5 -19 10 -25 10 -5
0 -3 -5 5 -10z"/>
<path d="M4895 8919 c-27 -4 -86 -10 -129 -14 -44 -3 -95 -13 -113 -22 -58
-27 -135 -158 -105 -177 6 -3 37 8 69 26 53 29 65 31 143 30 66 -1 87 -5 97
-18 6 -9 17 -13 23 -9 13 8 56 -44 52 -62 -2 -7 4 -13 12 -13 8 0 31 -9 50
-21 21 -12 43 -18 54 -14 13 4 22 0 26 -11 10 -25 -14 -35 -40 -17 -16 10 -49
14 -109 14 -98 0 -154 -20 -238 -84 -26 -21 -52 -37 -58 -37 -6 0 -8 -9 -4
-20 7 -21 6 -21 -32 -5 -21 9 -43 19 -48 21 -6 3 -12 -3 -12 -13 -1 -10 -4
-29 -5 -43 -2 -19 2 -26 20 -28 12 -2 22 -9 22 -17 0 -18 18 -23 59 -17 22 3
32 2 28 -5 -4 -6 0 -13 8 -17 8 -3 15 -13 15 -23 0 -10 15 -30 33 -45 63 -55
151 -59 237 -12 25 13 73 38 108 54 90 44 83 63 -16 39 -56 -14 -76 -29 -42
-30 l25 -1 -25 -8 c-43 -14 -54 -12 -40 5 9 11 9 15 1 15 -7 0 -9 5 -6 10 3 6
1 10 -4 10 -6 0 12 22 40 49 49 48 51 49 69 31 23 -23 13 -33 -47 -49 -24 -7
-43 -16 -43 -22 0 -6 5 -7 11 -4 21 14 126 34 150 29 21 -4 22 -3 4 5 -18 8
-18 10 -3 16 9 4 21 4 27 1 5 -4 13 -1 17 6 5 8 12 3 20 -17 l13 -30 1 37 c0
20 5 40 10 43 6 3 10 19 10 36 0 38 17 38 25 -1 7 -32 2 -67 -20 -140 -18 -62
-28 -140 -15 -120 5 8 10 27 10 43 0 15 4 27 8 27 10 0 30 89 47 214 l13 99
-30 56 c-16 31 -42 79 -56 106 -29 57 -51 85 -65 85 -5 0 -7 -7 -3 -15 9 -24
-15 -13 -46 22 -26 28 -115 66 -145 62 -4 -1 -30 -5 -58 -10z m310 -259 c3 -6
-1 -7 -9 -4 -18 7 -21 14 -7 14 6 0 13 -4 16 -10z m-40 -9 c-8 -13 13 -24 60
-31 28 -4 39 -10 36 -20 -2 -8 -7 -28 -11 -45 -8 -29 -8 -29 -9 -4 -2 40 -22
52 -57 34 -34 -17 -60 -19 -69 -5 -3 6 -1 10 4 10 6 0 11 4 11 9 0 21 20 61
30 61 6 0 9 -4 5 -9z m-181 -77 c9 -8 16 -17 16 -18 0 -2 -26 1 -58 5 -33 5
-82 5 -110 0 -31 -5 -49 -4 -46 1 19 30 171 39 198 12z m201 -33 c-3 -6 -11
-11 -17 -11 -6 0 -6 6 2 15 14 17 26 13 15 -4z m-440 -11 c-3 -5 -14 -10 -23
-10 -15 0 -15 2 -2 10 20 13 33 13 25 0z m205 -40 c0 -5 -4 -10 -9 -10 -6 0
-13 5 -16 10 -3 6 1 10 9 10 9 0 16 -4 16 -10z m236 -31 c3 -6 -5 -3 -20 6
-14 10 -26 19 -26 22 0 7 39 -17 46 -28z m-396 -23 c0 -7 10 -26 22 -41 l21
-27 -24 7 c-32 10 -68 46 -51 52 6 3 12 11 12 19 0 9 5 12 10 9 6 -3 10 -12
10 -19z"/>
<path d="M6155 8920 c3 -5 11 -10 16 -10 6 0 7 5 4 10 -3 6 -11 10 -16 10 -6
0 -7 -4 -4 -10z"/>
<path d="M4655 8720 c-3 -6 1 -7 9 -4 18 7 21 14 7 14 -6 0 -13 -4 -16 -10z"/>
<path d="M5360 8590 c8 -5 35 -9 60 -9 37 1 41 2 20 9 -38 12 -99 12 -80 0z"/>
<path d="M4577 8552 c-15 -16 -15 -20 -1 -40 21 -30 31 -28 39 11 4 17 13 35
19 39 6 4 0 8 -15 8 -14 0 -33 -8 -42 -18z"/>
<path d="M5465 8530 c-15 -17 -16 -20 -3 -20 9 0 19 7 22 16 10 25 1 27 -19 4z"/>
<path d="M4500 8500 c0 -5 5 -10 11 -10 5 0 7 5 4 10 -3 6 -8 10 -11 10 -2 0
-4 -4 -4 -10z"/>
<path d="M5507 8503 c-3 -4 -1 -19 4 -32 11 -28 33 -16 27 15 -3 19 -23 30
-31 17z"/>
<path d="M5845 8400 c11 -5 29 -9 40 -9 l20 0 -20 9 c-11 5 -29 9 -40 9 l-20
0 20 -9z"/>
<path d="M6118 8392 c-21 -8 -38 -19 -38 -23 0 -8 67 14 79 26 11 12 -7 10
-41 -3z"/>
<path d="M6844 8386 c-18 -29 -104 -279 -104 -305 0 -13 2 -13 9 -2 6 9 11 10
15 2 4 -6 18 -11 31 -11 25 0 65 -45 65 -74 0 -40 -121 -118 -154 -99 -6 4 -4
-1 4 -11 11 -14 23 -17 55 -12 78 13 185 82 155 101 -6 3 -10 13 -10 21 0 8
-11 31 -25 51 -16 25 -22 45 -19 60 6 24 -11 58 -47 94 -35 35 -22 50 46 51
36 1 43 4 34 15 -9 10 -7 13 11 13 13 0 20 5 18 13 -7 18 -38 21 -38 3 0 -8
-10 -20 -21 -27 -17 -9 -20 -8 -14 1 5 7 8 26 9 43 1 25 7 32 39 43 21 7 45
10 55 7 27 -10 61 -55 68 -90 10 -51 25 -39 23 20 -2 76 -16 93 -85 101 -32 4
-68 9 -80 12 -17 4 -27 -1 -40 -20z"/>
<path d="M5776 8331 c12 -13 115 -53 121 -47 2 2 -21 16 -53 30 -58 27 -86 33
-68 17z"/>
<path d="M4360 8300 c0 -11 8 -28 19 -39 10 -10 21 -25 24 -32 4 -10 6 -10 6
-1 2 22 21 13 22 -10 0 -13 4 -32 9 -43 5 -12 6 0 3 33 -5 41 -13 60 -35 83
-35 34 -48 37 -48 9z"/>
<path d="M5162 8141 c-18 -27 -32 -53 -32 -58 0 -5 -12 -20 -26 -34 -30 -28
-64 -90 -64 -117 0 -28 119 -142 148 -142 13 0 35 -9 48 -19 15 -12 33 -17 46
-13 13 3 26 -1 34 -13 12 -16 14 -16 42 4 16 11 44 37 61 57 27 31 36 35 62
29 20 -5 29 -12 25 -20 -6 -16 15 -25 59 -25 46 0 80 17 93 46 17 37 25 117
13 144 -9 22 -10 20 -10 -21 -1 -56 -18 -109 -36 -109 -7 0 -15 4 -17 8 -1 4
-22 23 -45 41 l-42 34 -43 -18 c-24 -9 -50 -23 -60 -32 -14 -13 -17 -12 -23 6
-5 17 -15 21 -45 21 -27 0 -48 8 -71 27 -18 16 -34 23 -36 17 -10 -31 -123 43
-123 80 0 9 15 37 34 63 30 43 54 93 43 93 -2 0 -18 -22 -35 -49z"/>
<path d="M4449 8045 c-1 -11 -1 -35 0 -54 0 -20 -6 -39 -17 -50 -10 -9 -16
-15 -13 -14 2 2 10 -2 17 -8 9 -7 14 -5 19 10 8 25 25 28 25 4 0 -9 3 -14 6
-10 7 7 -14 103 -27 127 -7 12 -9 11 -10 -5z"/>
<path d="M5525 7970 c-3 -5 1 -10 9 -10 9 0 16 5 16 10 0 6 -4 10 -9 10 -6 0
-13 -4 -16 -10z"/>
<path d="M5015 7890 c-3 -5 -1 -10 4 -10 6 0 11 5 11 10 0 6 -2 10 -4 10 -3 0
-8 -4 -11 -10z"/>
<path d="M4513 7750 c1 -46 6 -73 12 -70 6 3 9 12 8 20 -2 8 -7 40 -12 70 l-9
55 1 -75z"/>
<path d="M6600 7685 c-15 -18 -15 -17 27 -38 l33 -15 -6 26 c-4 15 -9 30 -11
35 -7 12 -30 8 -43 -8z"/>
<path d="M4466 7663 c-18 -19 11 -63 42 -63 16 1 16 2 0 14 -10 7 -18 20 -18
29 0 18 -14 30 -24 20z"/>
<path d="M4541 7654 c0 -11 3 -14 6 -6 3 7 2 16 -1 19 -3 4 -6 -2 -5 -13z"/>
<path d="M5160 7622 c-74 -37 -130 -74 -160 -106 -13 -15 -44 -32 -67 -38 -46
-11 -76 -44 -53 -58 6 -4 11 -11 10 -16 -1 -5 17 -13 40 -18 36 -8 41 -12 38
-35 -2 -20 1 -26 16 -26 26 0 31 -20 16 -64 -11 -35 -10 -40 24 -91 20 -30 36
-58 36 -63 0 -5 28 -7 63 -4 68 5 85 8 106 21 7 5 33 8 57 8 24 -1 44 3 44 8
0 5 8 9 18 8 34 -3 53 2 47 12 -7 12 1 13 80 11 59 -2 60 -1 39 16 -11 10 -19
24 -16 31 2 6 -1 12 -7 12 -6 0 -11 4 -11 9 0 5 21 13 48 18 31 5 47 13 47 23
0 15 -9 17 -175 34 -30 3 -93 1 -140 -3 -71 -8 -89 -7 -110 7 -15 9 -20 17
-12 20 6 2 12 10 12 18 0 8 14 20 31 26 22 7 27 13 18 19 -7 4 -17 5 -21 3 -4
-3 -8 0 -8 5 0 6 -10 11 -22 12 -22 1 -22 1 2 9 14 4 85 8 158 9 81 1 132 5
132 11 0 25 127 -1 145 -30 3 -5 -6 -12 -20 -16 -27 -7 -34 -24 -10 -24 9 0
18 -6 21 -14 3 -8 13 -12 24 -9 10 3 21 0 24 -6 7 -11 52 -5 71 9 6 5 37 15
70 24 33 8 67 24 76 35 16 20 49 20 75 0 14 -11 24 -1 24 22 0 18 -72 64 -83
53 -2 -3 -7 7 -11 21 -4 14 -11 25 -16 25 -13 0 -13 -13 1 -27 5 -5 7 -22 4
-36 l-7 -25 -45 20 c-24 11 -61 31 -81 45 -20 13 -71 41 -112 61 -72 35 -79
37 -180 37 -81 0 -112 4 -137 18 -41 22 -47 21 -113 -11z m478 -228 c2 -14 1
-15 -6 -6 -5 8 -16 10 -27 5 -17 -6 -18 -5 -5 10 18 20 34 17 38 -9z m62 -4
c8 -5 11 -10 5 -10 -5 0 -17 5 -25 10 -8 5 -10 10 -5 10 6 0 17 -5 25 -10z"/>
<path d="M4630 7209 c0 -4 11 -31 24 -60 14 -30 25 -47 25 -39 0 14 -48 112
-49 99z"/>
<path d="M4786 6952 c10 -18 39 -54 63 -80 41 -45 42 -45 15 -8 -15 22 -27 50
-26 62 1 13 -4 26 -10 30 -8 5 -9 1 -4 -12 5 -14 -1 -11 -25 11 l-32 30 19
-33z"/>
<path d="M5105 6861 c3 -6 -12 -17 -32 -26 -21 -9 -51 -23 -67 -31 -17 -8 -32
-11 -35 -6 -3 5 -16 12 -28 16 -20 6 -22 5 -15 -13 8 -22 76 -75 110 -85 12
-4 22 -11 22 -16 0 -24 128 -49 340 -65 89 -7 257 8 320 29 25 8 57 17 73 20
15 4 27 11 27 17 0 7 -7 8 -17 3 -26 -11 -154 -15 -167 -5 -6 5 -30 12 -53 16
-24 4 -43 11 -43 16 0 5 -4 9 -10 9 -5 0 -10 -7 -10 -15 0 -21 -9 -19 -32 7
-18 21 -20 21 -29 5 -12 -20 -27 -21 -66 -6 -15 7 -55 14 -88 16 -71 4 -131
19 -162 39 -17 10 -23 24 -23 49 0 19 -5 35 -11 35 -5 0 -8 -4 -4 -9z"/>
<path d="M5900 6760 c0 -5 9 -10 19 -10 11 0 23 5 26 10 4 6 -5 10 -19 10 -14
0 -26 -4 -26 -10z"/>
<path d="M5865 6740 c-3 -5 -1 -10 4 -10 6 0 11 5 11 10 0 6 -2 10 -4 10 -3 0
-8 -4 -11 -10z"/>
<path d="M5060 6671 c0 -5 7 -12 16 -15 14 -5 15 -4 4 9 -14 17 -20 19 -20 6z"/>
<path d="M5022 6648 c-7 -7 -12 -19 -12 -27 0 -11 4 -10 20 4 21 19 26 35 12
35 -4 0 -13 -5 -20 -12z"/>
<path d="M6267 6572 c-3 -15 -24 -67 -46 -115 -22 -48 -54 -126 -71 -174 -17
-49 -33 -95 -37 -103 -4 -8 -20 -62 -37 -120 -29 -97 -33 -105 -57 -108 -20
-2 -32 4 -46 25 -20 28 -103 232 -103 252 0 20 -15 11 -32 -19 -17 -29 -17
-30 6 -36 30 -7 58 -75 55 -136 -3 -72 -126 -288 -257 -453 -91 -114 -183
-215 -195 -215 -7 0 -20 -14 -29 -30 -13 -23 -24 -30 -47 -30 -26 0 -36 8 -68
58 -20 31 -49 80 -64 108 -14 28 -33 64 -42 80 -9 16 -39 82 -67 146 -46 104
-50 122 -45 165 6 43 5 49 -16 58 -13 6 -42 42 -64 80 -172 292 -175 298 -141
317 10 6 13 18 9 43 -5 30 1 44 37 96 23 33 40 62 38 65 -5 4 -53 -20 -148
-75 -50 -29 -105 -56 -197 -97 -17 -8 -38 -14 -47 -14 -10 0 -20 -15 -27 -45
-6 -25 -17 -45 -23 -44 -23 4 -66 -14 -66 -27 0 -19 19 -17 55 5 36 22 70 13
85 -21 13 -31 50 -223 50 -259 0 -16 4 -29 8 -29 5 0 6 -14 4 -31 -3 -18 1
-63 8 -101 7 -42 8 -73 3 -81 -5 -7 -10 -28 -11 -47 -6 -131 -26 -367 -32
-379 -4 -8 -6 6 -3 32 4 30 2 47 -5 47 -18 0 -26 -22 -26 -76 -1 -37 2 -50 12
-47 18 7 15 -6 -17 -69 -16 -32 -27 -58 -24 -58 3 0 0 -6 -6 -14 -7 -8 -10
-36 -7 -67 2 -30 2 -42 -1 -26 -5 30 -15 34 -33 12 -10 -12 -10 -18 0 -30 6
-8 9 -23 5 -34 -5 -16 -2 -18 14 -14 15 4 23 -1 30 -20 6 -14 9 -34 9 -44 -3
-40 25 -220 39 -255 13 -30 14 -57 9 -129 -4 -51 -11 -99 -16 -108 -4 -9 -12
-50 -15 -91 -4 -41 -12 -81 -17 -87 -11 -14 -2 -81 13 -99 7 -8 37 -10 95 -6
l85 5 37 -35 c20 -20 53 -44 72 -53 55 -28 61 -44 30 -75 -21 -21 -94 -28
-105 -10 -8 12 -45 13 -45 1 0 -4 -12 -26 -27 -47 -27 -41 -36 -76 -27 -107 5
-16 8 -15 20 8 8 15 14 37 15 49 0 13 3 16 6 7 9 -22 -28 -120 -44 -114 -7 3
-13 0 -13 -7 0 -6 -5 -8 -10 -5 -6 4 -7 11 -4 17 4 7 2 8 -4 4 -18 -11 -14
-43 7 -58 29 -21 11 -37 -39 -37 -25 -1 -53 -1 -63 -1 -11 -1 -25 7 -32 17 -7
10 -16 16 -19 13 -5 -6 4 -23 40 -79 12 -18 25 -51 28 -73 4 -22 42 -113 85
-202 44 -88 87 -190 96 -226 9 -36 32 -105 50 -155 28 -77 32 -99 28 -153 -4
-49 -2 -67 11 -81 13 -14 14 -24 6 -45 -5 -15 -10 -44 -10 -65 0 -30 7 -44 41
-76 56 -54 67 -80 67 -150 -1 -42 5 -72 20 -100 43 -82 52 -104 73 -199 l23
-97 -24 -97 c-13 -53 -24 -118 -24 -144 -1 -27 -4 -48 -8 -48 -5 0 -8 -9 -8
-19 0 -26 -85 -86 -132 -95 -21 -4 -38 -11 -38 -16 0 -5 -13 -8 -28 -8 -16 1
-39 -6 -53 -15 -13 -9 -53 -31 -88 -49 -60 -31 -64 -35 -68 -72 -2 -24 1 -42
8 -47 17 -10 233 -3 311 11 127 21 204 43 235 66 37 28 49 29 69 10 11 -11 22
-12 46 -5 18 5 53 9 78 10 70 2 93 11 103 44 16 53 16 342 0 432 -13 66 -13
97 -4 170 36 289 36 258 6 445 -24 151 -27 197 -26 368 3 247 5 280 16 279 11
-1 76 -118 110 -199 13 -30 43 -98 68 -150 138 -292 136 -288 157 -417 18
-116 21 -125 58 -170 39 -48 40 -49 44 -148 4 -74 11 -113 28 -152 24 -56 22
-93 -7 -125 -11 -12 -14 -29 -11 -56 3 -21 2 -45 -2 -53 -5 -8 -3 -41 3 -74
12 -59 13 -60 45 -57 30 2 32 0 32 -32 0 -27 7 -38 35 -57 l35 -24 -6 -67 c-8
-80 -5 -85 75 -129 153 -84 223 -77 304 29 59 78 51 109 -60 216 -45 44 -53
57 -53 88 0 20 6 38 13 40 7 3 17 37 23 79 l10 74 -38 78 -39 79 16 73 17 74
-31 101 -32 101 22 59 c21 57 21 66 10 167 -20 177 -27 621 -12 723 28 184 44
244 73 268 28 24 28 25 11 44 -10 11 -16 31 -15 44 2 15 -3 26 -12 30 -19 7
-76 110 -76 138 0 30 -14 48 -32 41 -24 -10 -40 18 -28 49 15 41 12 56 -11 56
-12 0 -19 -5 -17 -12 6 -16 -54 -48 -89 -48 -16 0 -43 9 -60 20 -58 35 -34
100 38 100 19 0 52 11 74 25 71 43 87 47 170 42 44 -3 90 -8 102 -12 17 -6 24
-3 29 11 3 11 14 35 25 55 25 48 25 72 0 64 -25 -8 -26 -4 -47 183 -19 170
-17 191 38 357 17 49 39 123 50 165 10 41 26 80 34 87 18 13 24 111 10 156 -7
24 -3 32 30 66 80 80 79 79 60 100 -12 13 -15 27 -11 42 5 14 2 25 -6 31 -11
7 -9 8 6 6 14 -2 20 3 21 19 1 18 -2 20 -22 13 -18 -7 -22 -6 -17 5 3 8 1 15
-5 15 -11 0 -18 -19 -57 -140 -21 -67 -26 -97 -21 -140 7 -71 -10 -101 -49
-80 -39 21 -63 84 -80 213 -19 148 -19 341 0 475 15 109 41 220 55 237 5 6 9
13 9 18 0 4 8 23 16 43 8 20 15 43 15 50 0 8 21 36 47 62 26 26 48 54 48 62 0
19 59 58 101 66 27 5 46 -1 97 -29 l63 -35 -9 60 c-11 68 -3 62 -142 103 -123
37 -263 108 -329 166 -30 27 -56 49 -59 49 -2 0 -7 -13 -10 -28z m-59 -2811
c3 -18 0 -22 -12 -18 -9 4 -19 -1 -24 -10 -8 -13 -10 -11 -16 11 -8 34 0 48
27 44 14 -2 23 -11 25 -27z m55 -132 c15 -24 1 -49 -27 -49 -29 0 -44 33 -25
56 15 18 38 15 52 -7z"/>
<path d="M5230 6206 c0 -2 11 -28 25 -58 28 -61 32 -96 10 -104 -24 -10 -19
-22 46 -103 34 -42 72 -95 86 -118 14 -24 30 -43 36 -43 13 1 147 266 147 290
0 21 -19 -9 -75 -118 -36 -70 -53 -94 -72 -98 -31 -8 -42 3 -50 52 -7 46 -69
184 -114 254 -30 46 -39 57 -39 46z"/>
<path d="M4305 6169 c-19 -17 -35 -36 -35 -42 0 -6 -8 -19 -17 -29 -15 -17
-15 -21 -3 -28 10 -6 18 -4 24 7 11 20 51 60 97 96 l34 27 -32 0 c-22 0 -44
-10 -68 -31z"/>
<path d="M6926 6162 c5 -4 23 -20 41 -36 29 -26 31 -27 26 -7 -3 12 -18 28
-34 36 -30 16 -49 20 -33 7z"/>
<path d="M5150 6105 c0 -27 25 -44 41 -28 10 10 -16 53 -32 53 -5 0 -9 -11 -9
-25z"/>
<path d="M5140 6055 c0 -8 5 -15 10 -15 6 0 10 7 10 15 0 8 -4 15 -10 15 -5 0
-10 -7 -10 -15z"/>
<path d="M5697 6063 c-4 -3 -7 -11 -7 -17 0 -6 5 -5 12 2 6 6 9 14 7 17 -3 3
-9 2 -12 -2z"/>
<path d="M4165 5873 c-7 -19 -35 -161 -35 -177 0 -6 4 -6 10 0 9 9 50 160 50
185 0 16 -18 10 -25 -8z"/>
<path d="M6633 5586 c-25 -28 -54 -99 -45 -108 9 -9 24 12 64 86 12 22 -2 39
-19 22z"/>
<path d="M4000 5200 c0 -5 5 -10 10 -10 6 0 10 5 10 10 0 6 -4 10 -10 10 -5 0
-10 -4 -10 -10z"/>
<path d="M3946 5125 c-3 -8 -1 -15 4 -15 6 0 10 7 10 15 0 8 -2 15 -4 15 -2 0
-6 -7 -10 -15z"/>
<path d="M7190 5126 c0 -9 5 -16 10 -16 6 0 10 4 10 9 0 6 -4 13 -10 16 -5 3
-10 -1 -10 -9z"/>
<path d="M4379 4768 c0 -17 -2 -19 -7 -8 -7 16 -42 27 -42 13 0 -10 34 -33 72
-50 20 -9 26 -9 23 0 -2 7 -6 24 -9 40 -8 33 -36 37 -37 5z"/>
<path d="M6620 4746 c-5 -15 -10 -38 -10 -52 0 -22 3 -24 28 -18 15 4 32 11
37 16 7 7 3 8 -12 4 -27 -9 -37 7 -21 33 10 16 10 23 1 32 -10 10 -15 6 -23
-15z"/>
<path d="M3841 4734 c-9 -20 -9 -25 0 -22 7 2 14 14 16 26 4 29 -1 28 -16 -4z"/>
<path d="M6930 4730 c0 -5 7 -10 15 -10 8 0 15 5 15 10 0 6 -7 10 -15 10 -8 0
-15 -4 -15 -10z"/>
<path d="M6551 4629 c-34 -13 -71 -56 -71 -83 0 -13 9 -31 20 -41 11 -10 20
-24 20 -32 0 -7 7 -13 15 -13 9 0 15 -9 15 -25 0 -31 13 -32 33 -1 14 20 20
22 59 16 84 -14 242 -116 287 -186 8 -13 22 -25 31 -27 10 -2 19 -16 22 -31 4
-20 -3 -34 -29 -61 -19 -19 -30 -35 -24 -35 5 0 13 5 16 10 3 6 21 10 40 10
64 0 125 39 125 80 0 11 6 20 13 20 16 0 67 51 67 67 0 19 -55 -14 -70 -42
-20 -37 -64 -34 -97 6 -15 17 -72 64 -127 105 -56 40 -107 79 -115 85 -28 24
-153 59 -187 53 -47 -9 -82 2 -80 23 0 10 3 20 6 23 15 15 61 82 59 84 -2 2
-15 0 -28 -5z"/>
<path d="M3855 4605 c9 -39 9 -39 41 -28 15 5 31 20 36 34 7 19 7 22 -3 12 -7
-7 -22 -13 -34 -13 -12 0 -27 6 -34 13 -11 10 -12 7 -6 -18z"/>
<path d="M4303 4546 c-43 -14 -273 -144 -273 -155 0 -3 -9 -12 -21 -19 -14 -9
-19 -9 -14 -2 5 8 -1 11 -16 8 -18 -2 -24 2 -24 15 0 21 -39 57 -61 57 -18 0
-18 -14 0 -29 8 -7 24 -32 35 -56 24 -52 59 -78 92 -70 19 4 36 -6 78 -45 30
-28 56 -48 60 -44 3 3 -1 11 -10 17 -76 57 -98 96 -76 131 14 20 161 131 168
127 2 -2 28 7 57 18 62 25 90 26 117 7 18 -12 23 -12 43 4 12 10 22 20 22 23
0 7 -85 27 -112 26 -13 0 -42 -6 -65 -13z"/>
<path d="M6255 4030 c-8 -13 5 -13 25 0 13 8 13 10 -2 10 -9 0 -20 -4 -23 -10z"/>
</g>
</svg>
