<?xml version="1.0" encoding="utf-8"?><!DOCTYPE svg PUBLIC "-//W3C//DTD SVG 1.1//EN" "http://www.w3.org/Graphics/SVG/1.1/DTD/svg11.dtd"><svg xmlns:xlink="http://www.w3.org/1999/xlink" xmlns="http://www.w3.org/2000/svg" id="map" viewBox="0 0 245 245" width="500" height="500" data-dot="5"><rect x="0" y="0" height="245" width="245" fill="#ffffff"/><defs/><g fill="#000000"><rect x="20" y="210" width="15" height="15" transform="rotate(-90,27.5,217.5)"/><path clip-rule="evenodd" class="svgeye" d="M 10 200v 35h 35v -35zM 15 205h 25v 25h -25z" transform="rotate(-90,27.5,217.5)"/><rect x="210" y="20" width="15" height="15" transform="rotate(90,217.5,27.5)"/><path clip-rule="evenodd" class="svgeye" d="M 200 10v 35h 35v -35zM 205 15h 25v 25h -25z" transform="rotate(90,217.5,27.5)"/><rect x="20" y="20" width="15" height="15" transform="rotate(0,27.5,27.5)"/><path clip-rule="evenodd" class="svgeye" d="M 10 10v 35h 35v -35zM 15 15h 25v 25h -25z" transform="rotate(0,27.5,27.5)"/><rect x="65" y="10" width="5" height="5" transform="rotate(0,67.5,12.5)"/><rect x="70" y="10" width="5" height="5" transform="rotate(0,72.5,12.5)"/><rect x="85" y="10" width="5" height="5" transform="rotate(0,87.5,12.5)"/><rect x="90" y="10" width="5" height="5" transform="rotate(0,92.5,12.5)"/><rect x="95" y="10" width="5" height="5" transform="rotate(0,97.5,12.5)"/><rect x="100" y="10" width="5" height="5" transform="rotate(0,102.5,12.5)"/><rect x="105" y="10" width="5" height="5" transform="rotate(0,107.5,12.5)"/><rect x="120" y="10" width="5" height="5" transform="rotate(0,122.5,12.5)"/><rect x="130" y="10" width="5" height="5" transform="rotate(0,132.5,12.5)"/><rect x="140" y="10" width="5" height="5" transform="rotate(0,142.5,12.5)"/><rect x="145" y="10" width="5" height="5" transform="rotate(0,147.5,12.5)"/><rect x="155" y="10" width="5" height="5" transform="rotate(0,157.5,12.5)"/><rect x="160" y="10" width="5" height="5" transform="rotate(0,162.5,12.5)"/><rect x="170" y="10" width="5" height="5" transform="rotate(0,172.5,12.5)"/><rect x="190" y="10" width="5" height="5" transform="rotate(0,192.5,12.5)"/><rect x="60" y="15" width="5" height="5" transform="rotate(0,62.5,17.5)"/><rect x="70" y="15" width="5" height="5" transform="rotate(0,72.5,17.5)"/><rect x="85" y="15" width="5" height="5" transform="rotate(0,87.5,17.5)"/><rect x="95" y="15" width="5" height="5" transform="rotate(0,97.5,17.5)"/><rect x="100" y="15" width="5" height="5" transform="rotate(0,102.5,17.5)"/><rect x="110" y="15" width="5" height="5" transform="rotate(0,112.5,17.5)"/><rect x="115" y="15" width="5" height="5" transform="rotate(0,117.5,17.5)"/><rect x="120" y="15" width="5" height="5" transform="rotate(0,122.5,17.5)"/><rect x="125" y="15" width="5" height="5" transform="rotate(0,127.5,17.5)"/><rect x="155" y="15" width="5" height="5" transform="rotate(0,157.5,17.5)"/><rect x="165" y="15" width="5" height="5" transform="rotate(0,167.5,17.5)"/><rect x="170" y="15" width="5" height="5" transform="rotate(0,172.5,17.5)"/><rect x="175" y="15" width="5" height="5" transform="rotate(0,177.5,17.5)"/><rect x="185" y="15" width="5" height="5" transform="rotate(0,187.5,17.5)"/><rect x="50" y="20" width="5" height="5" transform="rotate(0,52.5,22.5)"/><rect x="60" y="20" width="5" height="5" transform="rotate(0,62.5,22.5)"/><rect x="65" y="20" width="5" height="5" transform="rotate(0,67.5,22.5)"/><rect x="75" y="20" width="5" height="5" transform="rotate(0,77.5,22.5)"/><rect x="80" y="20" width="5" height="5" transform="rotate(0,82.5,22.5)"/><rect x="85" y="20" width="5" height="5" transform="rotate(0,87.5,22.5)"/><rect x="90" y="20" width="5" height="5" transform="rotate(0,92.5,22.5)"/><rect x="95" y="20" width="5" height="5" transform="rotate(0,97.5,22.5)"/><rect x="105" y="20" width="5" height="5" transform="rotate(0,107.5,22.5)"/><rect x="130" y="20" width="5" height="5" transform="rotate(0,132.5,22.5)"/><rect x="135" y="20" width="5" height="5" transform="rotate(0,137.5,22.5)"/><rect x="145" y="20" width="5" height="5" transform="rotate(0,147.5,22.5)"/><rect x="160" y="20" width="5" height="5" transform="rotate(0,162.5,22.5)"/><rect x="170" y="20" width="5" height="5" transform="rotate(0,172.5,22.5)"/><rect x="175" y="20" width="5" height="5" transform="rotate(0,177.5,22.5)"/><rect x="185" y="20" width="5" height="5" transform="rotate(0,187.5,22.5)"/><rect x="55" y="25" width="5" height="5" transform="rotate(0,57.5,27.5)"/><rect x="65" y="25" width="5" height="5" transform="rotate(0,67.5,27.5)"/><rect x="70" y="25" width="5" height="5" transform="rotate(0,72.5,27.5)"/><rect x="75" y="25" width="5" height="5" transform="rotate(0,77.5,27.5)"/><rect x="85" y="25" width="5" height="5" transform="rotate(0,87.5,27.5)"/><rect x="100" y="25" width="5" height="5" transform="rotate(0,102.5,27.5)"/><rect x="110" y="25" width="5" height="5" transform="rotate(0,112.5,27.5)"/><rect x="120" y="25" width="5" height="5" transform="rotate(0,122.5,27.5)"/><rect x="125" y="25" width="5" height="5" transform="rotate(0,127.5,27.5)"/><rect x="135" y="25" width="5" height="5" transform="rotate(0,137.5,27.5)"/><rect x="150" y="25" width="5" height="5" transform="rotate(0,152.5,27.5)"/><rect x="160" y="25" width="5" height="5" transform="rotate(0,162.5,27.5)"/><rect x="165" y="25" width="5" height="5" transform="rotate(0,167.5,27.5)"/><rect x="175" y="25" width="5" height="5" transform="rotate(0,177.5,27.5)"/><rect x="185" y="25" width="5" height="5" transform="rotate(0,187.5,27.5)"/><rect x="190" y="25" width="5" height="5" transform="rotate(0,192.5,27.5)"/><rect x="50" y="30" width="5" height="5" transform="rotate(0,52.5,32.5)"/><rect x="55" y="30" width="5" height="5" transform="rotate(0,57.5,32.5)"/><rect x="60" y="30" width="5" height="5" transform="rotate(0,62.5,32.5)"/><rect x="65" y="30" width="5" height="5" transform="rotate(0,67.5,32.5)"/><rect x="75" y="30" width="5" height="5" transform="rotate(0,77.5,32.5)"/><rect x="80" y="30" width="5" height="5" transform="rotate(0,82.5,32.5)"/><rect x="85" y="30" width="5" height="5" transform="rotate(0,87.5,32.5)"/><rect x="90" y="30" width="5" height="5" transform="rotate(0,92.5,32.5)"/><rect x="95" y="30" width="5" height="5" transform="rotate(0,97.5,32.5)"/><rect x="100" y="30" width="5" height="5" transform="rotate(0,102.5,32.5)"/><rect x="110" y="30" width="5" height="5" transform="rotate(0,112.5,32.5)"/><rect x="115" y="30" width="5" height="5" transform="rotate(0,117.5,32.5)"/><rect x="120" y="30" width="5" height="5" transform="rotate(0,122.5,32.5)"/><rect x="125" y="30" width="5" height="5" transform="rotate(0,127.5,32.5)"/><rect x="130" y="30" width="5" height="5" transform="rotate(0,132.5,32.5)"/><rect x="135" y="30" width="5" height="5" transform="rotate(0,137.5,32.5)"/><rect x="140" y="30" width="5" height="5" transform="rotate(0,142.5,32.5)"/><rect x="145" y="30" width="5" height="5" transform="rotate(0,147.5,32.5)"/><rect x="155" y="30" width="5" height="5" transform="rotate(0,157.5,32.5)"/><rect x="160" y="30" width="5" height="5" transform="rotate(0,162.5,32.5)"/><rect x="165" y="30" width="5" height="5" transform="rotate(0,167.5,32.5)"/><rect x="175" y="30" width="5" height="5" transform="rotate(0,177.5,32.5)"/><rect x="180" y="30" width="5" height="5" transform="rotate(0,182.5,32.5)"/><rect x="185" y="30" width="5" height="5" transform="rotate(0,187.5,32.5)"/><rect x="190" y="30" width="5" height="5" transform="rotate(0,192.5,32.5)"/><rect x="50" y="35" width="5" height="5" transform="rotate(0,52.5,37.5)"/><rect x="65" y="35" width="5" height="5" transform="rotate(0,67.5,37.5)"/><rect x="70" y="35" width="5" height="5" transform="rotate(0,72.5,37.5)"/><rect x="95" y="35" width="5" height="5" transform="rotate(0,97.5,37.5)"/><rect x="105" y="35" width="5" height="5" transform="rotate(0,107.5,37.5)"/><rect x="110" y="35" width="5" height="5" transform="rotate(0,112.5,37.5)"/><rect x="130" y="35" width="5" height="5" transform="rotate(0,132.5,37.5)"/><rect x="135" y="35" width="5" height="5" transform="rotate(0,137.5,37.5)"/><rect x="140" y="35" width="5" height="5" transform="rotate(0,142.5,37.5)"/><rect x="145" y="35" width="5" height="5" transform="rotate(0,147.5,37.5)"/><rect x="150" y="35" width="5" height="5" transform="rotate(0,152.5,37.5)"/><rect x="165" y="35" width="5" height="5" transform="rotate(0,167.5,37.5)"/><rect x="170" y="35" width="5" height="5" transform="rotate(0,172.5,37.5)"/><rect x="175" y="35" width="5" height="5" transform="rotate(0,177.5,37.5)"/><rect x="50" y="40" width="5" height="5" transform="rotate(0,52.5,42.5)"/><rect x="60" y="40" width="5" height="5" transform="rotate(0,62.5,42.5)"/><rect x="70" y="40" width="5" height="5" transform="rotate(0,72.5,42.5)"/><rect x="80" y="40" width="5" height="5" transform="rotate(0,82.5,42.5)"/><rect x="90" y="40" width="5" height="5" transform="rotate(0,92.5,42.5)"/><rect x="100" y="40" width="5" height="5" transform="rotate(0,102.5,42.5)"/><rect x="110" y="40" width="5" height="5" transform="rotate(0,112.5,42.5)"/><rect x="120" y="40" width="5" height="5" transform="rotate(0,122.5,42.5)"/><rect x="130" y="40" width="5" height="5" transform="rotate(0,132.5,42.5)"/><rect x="140" y="40" width="5" height="5" transform="rotate(0,142.5,42.5)"/><rect x="150" y="40" width="5" height="5" transform="rotate(0,152.5,42.5)"/><rect x="160" y="40" width="5" height="5" transform="rotate(0,162.5,42.5)"/><rect x="170" y="40" width="5" height="5" transform="rotate(0,172.5,42.5)"/><rect x="180" y="40" width="5" height="5" transform="rotate(0,182.5,42.5)"/><rect x="190" y="40" width="5" height="5" transform="rotate(0,192.5,42.5)"/><rect x="55" y="45" width="5" height="5" transform="rotate(0,57.5,47.5)"/><rect x="70" y="45" width="5" height="5" transform="rotate(0,72.5,47.5)"/><rect x="80" y="45" width="5" height="5" transform="rotate(0,82.5,47.5)"/><rect x="85" y="45" width="5" height="5" transform="rotate(0,87.5,47.5)"/><rect x="90" y="45" width="5" height="5" transform="rotate(0,92.5,47.5)"/><rect x="95" y="45" width="5" height="5" transform="rotate(0,97.5,47.5)"/><rect x="110" y="45" width="5" height="5" transform="rotate(0,112.5,47.5)"/><rect x="130" y="45" width="5" height="5" transform="rotate(0,132.5,47.5)"/><rect x="140" y="45" width="5" height="5" transform="rotate(0,142.5,47.5)"/><rect x="165" y="45" width="5" height="5" transform="rotate(0,167.5,47.5)"/><rect x="170" y="45" width="5" height="5" transform="rotate(0,172.5,47.5)"/><rect x="185" y="45" width="5" height="5" transform="rotate(0,187.5,47.5)"/><rect x="190" y="45" width="5" height="5" transform="rotate(0,192.5,47.5)"/><rect x="15" y="50" width="5" height="5" transform="rotate(0,17.5,52.5)"/><rect x="30" y="50" width="5" height="5" transform="rotate(0,32.5,52.5)"/><rect x="40" y="50" width="5" height="5" transform="rotate(0,42.5,52.5)"/><rect x="50" y="50" width="5" height="5" transform="rotate(0,52.5,52.5)"/><rect x="55" y="50" width="5" height="5" transform="rotate(0,57.5,52.5)"/><rect x="60" y="50" width="5" height="5" transform="rotate(0,62.5,52.5)"/><rect x="65" y="50" width="5" height="5" transform="rotate(0,67.5,52.5)"/><rect x="70" y="50" width="5" height="5" transform="rotate(0,72.5,52.5)"/><rect x="75" y="50" width="5" height="5" transform="rotate(0,77.5,52.5)"/><rect x="90" y="50" width="5" height="5" transform="rotate(0,92.5,52.5)"/><rect x="95" y="50" width="5" height="5" transform="rotate(0,97.5,52.5)"/><rect x="105" y="50" width="5" height="5" transform="rotate(0,107.5,52.5)"/><rect x="110" y="50" width="5" height="5" transform="rotate(0,112.5,52.5)"/><rect x="115" y="50" width="5" height="5" transform="rotate(0,117.5,52.5)"/><rect x="120" y="50" width="5" height="5" transform="rotate(0,122.5,52.5)"/><rect x="125" y="50" width="5" height="5" transform="rotate(0,127.5,52.5)"/><rect x="130" y="50" width="5" height="5" transform="rotate(0,132.5,52.5)"/><rect x="140" y="50" width="5" height="5" transform="rotate(0,142.5,52.5)"/><rect x="155" y="50" width="5" height="5" transform="rotate(0,157.5,52.5)"/><rect x="160" y="50" width="5" height="5" transform="rotate(0,162.5,52.5)"/><rect x="170" y="50" width="5" height="5" transform="rotate(0,172.5,52.5)"/><rect x="175" y="50" width="5" height="5" transform="rotate(0,177.5,52.5)"/><rect x="195" y="50" width="5" height="5" transform="rotate(0,197.5,52.5)"/><rect x="205" y="50" width="5" height="5" transform="rotate(0,207.5,52.5)"/><rect x="210" y="50" width="5" height="5" transform="rotate(0,212.5,52.5)"/><rect x="220" y="50" width="5" height="5" transform="rotate(0,222.5,52.5)"/><rect x="10" y="55" width="5" height="5" transform="rotate(0,12.5,57.5)"/><rect x="15" y="55" width="5" height="5" transform="rotate(0,17.5,57.5)"/><rect x="20" y="55" width="5" height="5" transform="rotate(0,22.5,57.5)"/><rect x="65" y="55" width="5" height="5" transform="rotate(0,67.5,57.5)"/><rect x="80" y="55" width="5" height="5" transform="rotate(0,82.5,57.5)"/><rect x="85" y="55" width="5" height="5" transform="rotate(0,87.5,57.5)"/><rect x="90" y="55" width="5" height="5" transform="rotate(0,92.5,57.5)"/><rect x="105" y="55" width="5" height="5" transform="rotate(0,107.5,57.5)"/><rect x="125" y="55" width="5" height="5" transform="rotate(0,127.5,57.5)"/><rect x="135" y="55" width="5" height="5" transform="rotate(0,137.5,57.5)"/><rect x="140" y="55" width="5" height="5" transform="rotate(0,142.5,57.5)"/><rect x="145" y="55" width="5" height="5" transform="rotate(0,147.5,57.5)"/><rect x="160" y="55" width="5" height="5" transform="rotate(0,162.5,57.5)"/><rect x="170" y="55" width="5" height="5" transform="rotate(0,172.5,57.5)"/><rect x="185" y="55" width="5" height="5" transform="rotate(0,187.5,57.5)"/><rect x="190" y="55" width="5" height="5" transform="rotate(0,192.5,57.5)"/><rect x="200" y="55" width="5" height="5" transform="rotate(0,202.5,57.5)"/><rect x="215" y="55" width="5" height="5" transform="rotate(0,217.5,57.5)"/><rect x="220" y="55" width="5" height="5" transform="rotate(0,222.5,57.5)"/><rect x="225" y="55" width="5" height="5" transform="rotate(0,227.5,57.5)"/><rect x="10" y="60" width="5" height="5" transform="rotate(0,12.5,62.5)"/><rect x="20" y="60" width="5" height="5" transform="rotate(0,22.5,62.5)"/><rect x="25" y="60" width="5" height="5" transform="rotate(0,27.5,62.5)"/><rect x="35" y="60" width="5" height="5" transform="rotate(0,37.5,62.5)"/><rect x="40" y="60" width="5" height="5" transform="rotate(0,42.5,62.5)"/><rect x="50" y="60" width="5" height="5" transform="rotate(0,52.5,62.5)"/><rect x="65" y="60" width="5" height="5" transform="rotate(0,67.5,62.5)"/><rect x="80" y="60" width="5" height="5" transform="rotate(0,82.5,62.5)"/><rect x="90" y="60" width="5" height="5" transform="rotate(0,92.5,62.5)"/><rect x="95" y="60" width="5" height="5" transform="rotate(0,97.5,62.5)"/><rect x="125" y="60" width="5" height="5" transform="rotate(0,127.5,62.5)"/><rect x="130" y="60" width="5" height="5" transform="rotate(0,132.5,62.5)"/><rect x="135" y="60" width="5" height="5" transform="rotate(0,137.5,62.5)"/><rect x="140" y="60" width="5" height="5" transform="rotate(0,142.5,62.5)"/><rect x="145" y="60" width="5" height="5" transform="rotate(0,147.5,62.5)"/><rect x="150" y="60" width="5" height="5" transform="rotate(0,152.5,62.5)"/><rect x="160" y="60" width="5" height="5" transform="rotate(0,162.5,62.5)"/><rect x="165" y="60" width="5" height="5" transform="rotate(0,167.5,62.5)"/><rect x="175" y="60" width="5" height="5" transform="rotate(0,177.5,62.5)"/><rect x="190" y="60" width="5" height="5" transform="rotate(0,192.5,62.5)"/><rect x="195" y="60" width="5" height="5" transform="rotate(0,197.5,62.5)"/><rect x="200" y="60" width="5" height="5" transform="rotate(0,202.5,62.5)"/><rect x="210" y="60" width="5" height="5" transform="rotate(0,212.5,62.5)"/><rect x="215" y="60" width="5" height="5" transform="rotate(0,217.5,62.5)"/><rect x="220" y="60" width="5" height="5" transform="rotate(0,222.5,62.5)"/><rect x="225" y="60" width="5" height="5" transform="rotate(0,227.5,62.5)"/><rect x="20" y="65" width="5" height="5" transform="rotate(0,22.5,67.5)"/><rect x="25" y="65" width="5" height="5" transform="rotate(0,27.5,67.5)"/><rect x="45" y="65" width="5" height="5" transform="rotate(0,47.5,67.5)"/><rect x="50" y="65" width="5" height="5" transform="rotate(0,52.5,67.5)"/><rect x="65" y="65" width="5" height="5" transform="rotate(0,67.5,67.5)"/><rect x="75" y="65" width="5" height="5" transform="rotate(0,77.5,67.5)"/><rect x="80" y="65" width="5" height="5" transform="rotate(0,82.5,67.5)"/><rect x="95" y="65" width="5" height="5" transform="rotate(0,97.5,67.5)"/><rect x="100" y="65" width="5" height="5" transform="rotate(0,102.5,67.5)"/><rect x="105" y="65" width="5" height="5" transform="rotate(0,107.5,67.5)"/><rect x="110" y="65" width="5" height="5" transform="rotate(0,112.5,67.5)"/><rect x="125" y="65" width="5" height="5" transform="rotate(0,127.5,67.5)"/><rect x="130" y="65" width="5" height="5" transform="rotate(0,132.5,67.5)"/><rect x="135" y="65" width="5" height="5" transform="rotate(0,137.5,67.5)"/><rect x="140" y="65" width="5" height="5" transform="rotate(0,142.5,67.5)"/><rect x="145" y="65" width="5" height="5" transform="rotate(0,147.5,67.5)"/><rect x="170" y="65" width="5" height="5" transform="rotate(0,172.5,67.5)"/><rect x="175" y="65" width="5" height="5" transform="rotate(0,177.5,67.5)"/><rect x="180" y="65" width="5" height="5" transform="rotate(0,182.5,67.5)"/><rect x="190" y="65" width="5" height="5" transform="rotate(0,192.5,67.5)"/><rect x="215" y="65" width="5" height="5" transform="rotate(0,217.5,67.5)"/><rect x="230" y="65" width="5" height="5" transform="rotate(0,232.5,67.5)"/><rect x="15" y="70" width="5" height="5" transform="rotate(0,17.5,72.5)"/><rect x="20" y="70" width="5" height="5" transform="rotate(0,22.5,72.5)"/><rect x="40" y="70" width="5" height="5" transform="rotate(0,42.5,72.5)"/><rect x="50" y="70" width="5" height="5" transform="rotate(0,52.5,72.5)"/><rect x="65" y="70" width="5" height="5" transform="rotate(0,67.5,72.5)"/><rect x="85" y="70" width="5" height="5" transform="rotate(0,87.5,72.5)"/><rect x="95" y="70" width="5" height="5" transform="rotate(0,97.5,72.5)"/><rect x="100" y="70" width="5" height="5" transform="rotate(0,102.5,72.5)"/><rect x="105" y="70" width="5" height="5" transform="rotate(0,107.5,72.5)"/><rect x="110" y="70" width="5" height="5" transform="rotate(0,112.5,72.5)"/><rect x="115" y="70" width="5" height="5" transform="rotate(0,117.5,72.5)"/><rect x="120" y="70" width="5" height="5" transform="rotate(0,122.5,72.5)"/><rect x="140" y="70" width="5" height="5" transform="rotate(0,142.5,72.5)"/><rect x="145" y="70" width="5" height="5" transform="rotate(0,147.5,72.5)"/><rect x="155" y="70" width="5" height="5" transform="rotate(0,157.5,72.5)"/><rect x="160" y="70" width="5" height="5" transform="rotate(0,162.5,72.5)"/><rect x="170" y="70" width="5" height="5" transform="rotate(0,172.5,72.5)"/><rect x="175" y="70" width="5" height="5" transform="rotate(0,177.5,72.5)"/><rect x="185" y="70" width="5" height="5" transform="rotate(0,187.5,72.5)"/><rect x="205" y="70" width="5" height="5" transform="rotate(0,207.5,72.5)"/><rect x="215" y="70" width="5" height="5" transform="rotate(0,217.5,72.5)"/><rect x="20" y="75" width="5" height="5" transform="rotate(0,22.5,77.5)"/><rect x="25" y="75" width="5" height="5" transform="rotate(0,27.5,77.5)"/><rect x="30" y="75" width="5" height="5" transform="rotate(0,32.5,77.5)"/><rect x="35" y="75" width="5" height="5" transform="rotate(0,37.5,77.5)"/><rect x="50" y="75" width="5" height="5" transform="rotate(0,52.5,77.5)"/><rect x="60" y="75" width="5" height="5" transform="rotate(0,62.5,77.5)"/><rect x="70" y="75" width="5" height="5" transform="rotate(0,72.5,77.5)"/><rect x="75" y="75" width="5" height="5" transform="rotate(0,77.5,77.5)"/><rect x="80" y="75" width="5" height="5" transform="rotate(0,82.5,77.5)"/><rect x="90" y="75" width="5" height="5" transform="rotate(0,92.5,77.5)"/><rect x="105" y="75" width="5" height="5" transform="rotate(0,107.5,77.5)"/><rect x="120" y="75" width="5" height="5" transform="rotate(0,122.5,77.5)"/><rect x="125" y="75" width="5" height="5" transform="rotate(0,127.5,77.5)"/><rect x="130" y="75" width="5" height="5" transform="rotate(0,132.5,77.5)"/><rect x="140" y="75" width="5" height="5" transform="rotate(0,142.5,77.5)"/><rect x="145" y="75" width="5" height="5" transform="rotate(0,147.5,77.5)"/><rect x="150" y="75" width="5" height="5" transform="rotate(0,152.5,77.5)"/><rect x="155" y="75" width="5" height="5" transform="rotate(0,157.5,77.5)"/><rect x="160" y="75" width="5" height="5" transform="rotate(0,162.5,77.5)"/><rect x="165" y="75" width="5" height="5" transform="rotate(0,167.5,77.5)"/><rect x="170" y="75" width="5" height="5" transform="rotate(0,172.5,77.5)"/><rect x="185" y="75" width="5" height="5" transform="rotate(0,187.5,77.5)"/><rect x="190" y="75" width="5" height="5" transform="rotate(0,192.5,77.5)"/><rect x="200" y="75" width="5" height="5" transform="rotate(0,202.5,77.5)"/><rect x="215" y="75" width="5" height="5" transform="rotate(0,217.5,77.5)"/><rect x="225" y="75" width="5" height="5" transform="rotate(0,227.5,77.5)"/><rect x="10" y="80" width="5" height="5" transform="rotate(0,12.5,82.5)"/><rect x="20" y="80" width="5" height="5" transform="rotate(0,22.5,82.5)"/><rect x="30" y="80" width="5" height="5" transform="rotate(0,32.5,82.5)"/><rect x="40" y="80" width="5" height="5" transform="rotate(0,42.5,82.5)"/><rect x="45" y="80" width="5" height="5" transform="rotate(0,47.5,82.5)"/><rect x="70" y="80" width="5" height="5" transform="rotate(0,72.5,82.5)"/><rect x="75" y="80" width="5" height="5" transform="rotate(0,77.5,82.5)"/><rect x="80" y="80" width="5" height="5" transform="rotate(0,82.5,82.5)"/><rect x="90" y="80" width="5" height="5" transform="rotate(0,92.5,82.5)"/><rect x="100" y="80" width="5" height="5" transform="rotate(0,102.5,82.5)"/><rect x="110" y="80" width="5" height="5" transform="rotate(0,112.5,82.5)"/><rect x="120" y="80" width="5" height="5" transform="rotate(0,122.5,82.5)"/><rect x="140" y="80" width="5" height="5" transform="rotate(0,142.5,82.5)"/><rect x="145" y="80" width="5" height="5" transform="rotate(0,147.5,82.5)"/><rect x="150" y="80" width="5" height="5" transform="rotate(0,152.5,82.5)"/><rect x="160" y="80" width="5" height="5" transform="rotate(0,162.5,82.5)"/><rect x="165" y="80" width="5" height="5" transform="rotate(0,167.5,82.5)"/><rect x="175" y="80" width="5" height="5" transform="rotate(0,177.5,82.5)"/><rect x="185" y="80" width="5" height="5" transform="rotate(0,187.5,82.5)"/><rect x="200" y="80" width="5" height="5" transform="rotate(0,202.5,82.5)"/><rect x="205" y="80" width="5" height="5" transform="rotate(0,207.5,82.5)"/><rect x="210" y="80" width="5" height="5" transform="rotate(0,212.5,82.5)"/><rect x="215" y="80" width="5" height="5" transform="rotate(0,217.5,82.5)"/><rect x="220" y="80" width="5" height="5" transform="rotate(0,222.5,82.5)"/><rect x="225" y="80" width="5" height="5" transform="rotate(0,227.5,82.5)"/><rect x="15" y="85" width="5" height="5" transform="rotate(0,17.5,87.5)"/><rect x="25" y="85" width="5" height="5" transform="rotate(0,27.5,87.5)"/><rect x="35" y="85" width="5" height="5" transform="rotate(0,37.5,87.5)"/><rect x="50" y="85" width="5" height="5" transform="rotate(0,52.5,87.5)"/><rect x="55" y="85" width="5" height="5" transform="rotate(0,57.5,87.5)"/><rect x="70" y="85" width="5" height="5" transform="rotate(0,72.5,87.5)"/><rect x="75" y="85" width="5" height="5" transform="rotate(0,77.5,87.5)"/><rect x="80" y="85" width="5" height="5" transform="rotate(0,82.5,87.5)"/><rect x="85" y="85" width="5" height="5" transform="rotate(0,87.5,87.5)"/><rect x="105" y="85" width="5" height="5" transform="rotate(0,107.5,87.5)"/><rect x="110" y="85" width="5" height="5" transform="rotate(0,112.5,87.5)"/><rect x="135" y="85" width="5" height="5" transform="rotate(0,137.5,87.5)"/><rect x="165" y="85" width="5" height="5" transform="rotate(0,167.5,87.5)"/><rect x="170" y="85" width="5" height="5" transform="rotate(0,172.5,87.5)"/><rect x="175" y="85" width="5" height="5" transform="rotate(0,177.5,87.5)"/><rect x="185" y="85" width="5" height="5" transform="rotate(0,187.5,87.5)"/><rect x="205" y="85" width="5" height="5" transform="rotate(0,207.5,87.5)"/><rect x="20" y="90" width="5" height="5" transform="rotate(0,22.5,92.5)"/><rect x="25" y="90" width="5" height="5" transform="rotate(0,27.5,92.5)"/><rect x="30" y="90" width="5" height="5" transform="rotate(0,32.5,92.5)"/><rect x="35" y="90" width="5" height="5" transform="rotate(0,37.5,92.5)"/><rect x="40" y="90" width="5" height="5" transform="rotate(0,42.5,92.5)"/><rect x="45" y="90" width="5" height="5" transform="rotate(0,47.5,92.5)"/><rect x="55" y="90" width="5" height="5" transform="rotate(0,57.5,92.5)"/><rect x="75" y="90" width="5" height="5" transform="rotate(0,77.5,92.5)"/><rect x="80" y="90" width="5" height="5" transform="rotate(0,82.5,92.5)"/><rect x="85" y="90" width="5" height="5" transform="rotate(0,87.5,92.5)"/><rect x="115" y="90" width="5" height="5" transform="rotate(0,117.5,92.5)"/><rect x="120" y="90" width="5" height="5" transform="rotate(0,122.5,92.5)"/><rect x="130" y="90" width="5" height="5" transform="rotate(0,132.5,92.5)"/><rect x="135" y="90" width="5" height="5" transform="rotate(0,137.5,92.5)"/><rect x="140" y="90" width="5" height="5" transform="rotate(0,142.5,92.5)"/><rect x="145" y="90" width="5" height="5" transform="rotate(0,147.5,92.5)"/><rect x="160" y="90" width="5" height="5" transform="rotate(0,162.5,92.5)"/><rect x="165" y="90" width="5" height="5" transform="rotate(0,167.5,92.5)"/><rect x="170" y="90" width="5" height="5" transform="rotate(0,172.5,92.5)"/><rect x="180" y="90" width="5" height="5" transform="rotate(0,182.5,92.5)"/><rect x="185" y="90" width="5" height="5" transform="rotate(0,187.5,92.5)"/><rect x="195" y="90" width="5" height="5" transform="rotate(0,197.5,92.5)"/><rect x="200" y="90" width="5" height="5" transform="rotate(0,202.5,92.5)"/><rect x="205" y="90" width="5" height="5" transform="rotate(0,207.5,92.5)"/><rect x="215" y="90" width="5" height="5" transform="rotate(0,217.5,92.5)"/><rect x="225" y="90" width="5" height="5" transform="rotate(0,227.5,92.5)"/><rect x="10" y="95" width="5" height="5" transform="rotate(0,12.5,97.5)"/><rect x="20" y="95" width="5" height="5" transform="rotate(0,22.5,97.5)"/><rect x="30" y="95" width="5" height="5" transform="rotate(0,32.5,97.5)"/><rect x="35" y="95" width="5" height="5" transform="rotate(0,37.5,97.5)"/><rect x="45" y="95" width="5" height="5" transform="rotate(0,47.5,97.5)"/><rect x="55" y="95" width="5" height="5" transform="rotate(0,57.5,97.5)"/><rect x="65" y="95" width="5" height="5" transform="rotate(0,67.5,97.5)"/><rect x="70" y="95" width="5" height="5" transform="rotate(0,72.5,97.5)"/><rect x="85" y="95" width="5" height="5" transform="rotate(0,87.5,97.5)"/><rect x="90" y="95" width="5" height="5" transform="rotate(0,92.5,97.5)"/><rect x="95" y="95" width="5" height="5" transform="rotate(0,97.5,97.5)"/><rect x="105" y="95" width="5" height="5" transform="rotate(0,107.5,97.5)"/><rect x="125" y="95" width="5" height="5" transform="rotate(0,127.5,97.5)"/><rect x="130" y="95" width="5" height="5" transform="rotate(0,132.5,97.5)"/><rect x="140" y="95" width="5" height="5" transform="rotate(0,142.5,97.5)"/><rect x="150" y="95" width="5" height="5" transform="rotate(0,152.5,97.5)"/><rect x="155" y="95" width="5" height="5" transform="rotate(0,157.5,97.5)"/><rect x="160" y="95" width="5" height="5" transform="rotate(0,162.5,97.5)"/><rect x="170" y="95" width="5" height="5" transform="rotate(0,172.5,97.5)"/><rect x="190" y="95" width="5" height="5" transform="rotate(0,192.5,97.5)"/><rect x="200" y="95" width="5" height="5" transform="rotate(0,202.5,97.5)"/><rect x="205" y="95" width="5" height="5" transform="rotate(0,207.5,97.5)"/><rect x="220" y="95" width="5" height="5" transform="rotate(0,222.5,97.5)"/><rect x="225" y="95" width="5" height="5" transform="rotate(0,227.5,97.5)"/><rect x="20" y="100" width="5" height="5" transform="rotate(0,22.5,102.5)"/><rect x="35" y="100" width="5" height="5" transform="rotate(0,37.5,102.5)"/><rect x="40" y="100" width="5" height="5" transform="rotate(0,42.5,102.5)"/><rect x="45" y="100" width="5" height="5" transform="rotate(0,47.5,102.5)"/><rect x="60" y="100" width="5" height="5" transform="rotate(0,62.5,102.5)"/><rect x="65" y="100" width="5" height="5" transform="rotate(0,67.5,102.5)"/><rect x="75" y="100" width="5" height="5" transform="rotate(0,77.5,102.5)"/><rect x="80" y="100" width="5" height="5" transform="rotate(0,82.5,102.5)"/><rect x="85" y="100" width="5" height="5" transform="rotate(0,87.5,102.5)"/><rect x="95" y="100" width="5" height="5" transform="rotate(0,97.5,102.5)"/><rect x="100" y="100" width="5" height="5" transform="rotate(0,102.5,102.5)"/><rect x="110" y="100" width="5" height="5" transform="rotate(0,112.5,102.5)"/><rect x="115" y="100" width="5" height="5" transform="rotate(0,117.5,102.5)"/><rect x="120" y="100" width="5" height="5" transform="rotate(0,122.5,102.5)"/><rect x="125" y="100" width="5" height="5" transform="rotate(0,127.5,102.5)"/><rect x="130" y="100" width="5" height="5" transform="rotate(0,132.5,102.5)"/><rect x="140" y="100" width="5" height="5" transform="rotate(0,142.5,102.5)"/><rect x="155" y="100" width="5" height="5" transform="rotate(0,157.5,102.5)"/><rect x="160" y="100" width="5" height="5" transform="rotate(0,162.5,102.5)"/><rect x="165" y="100" width="5" height="5" transform="rotate(0,167.5,102.5)"/><rect x="170" y="100" width="5" height="5" transform="rotate(0,172.5,102.5)"/><rect x="175" y="100" width="5" height="5" transform="rotate(0,177.5,102.5)"/><rect x="190" y="100" width="5" height="5" transform="rotate(0,192.5,102.5)"/><rect x="200" y="100" width="5" height="5" transform="rotate(0,202.5,102.5)"/><rect x="205" y="100" width="5" height="5" transform="rotate(0,207.5,102.5)"/><rect x="210" y="100" width="5" height="5" transform="rotate(0,212.5,102.5)"/><rect x="220" y="100" width="5" height="5" transform="rotate(0,222.5,102.5)"/><rect x="225" y="100" width="5" height="5" transform="rotate(0,227.5,102.5)"/><rect x="15" y="105" width="5" height="5" transform="rotate(0,17.5,107.5)"/><rect x="20" y="105" width="5" height="5" transform="rotate(0,22.5,107.5)"/><rect x="35" y="105" width="5" height="5" transform="rotate(0,37.5,107.5)"/><rect x="45" y="105" width="5" height="5" transform="rotate(0,47.5,107.5)"/><rect x="50" y="105" width="5" height="5" transform="rotate(0,52.5,107.5)"/><rect x="55" y="105" width="5" height="5" transform="rotate(0,57.5,107.5)"/><rect x="60" y="105" width="5" height="5" transform="rotate(0,62.5,107.5)"/><rect x="70" y="105" width="5" height="5" transform="rotate(0,72.5,107.5)"/><rect x="85" y="105" width="5" height="5" transform="rotate(0,87.5,107.5)"/><rect x="105" y="105" width="5" height="5" transform="rotate(0,107.5,107.5)"/><rect x="115" y="105" width="5" height="5" transform="rotate(0,117.5,107.5)"/><rect x="120" y="105" width="5" height="5" transform="rotate(0,122.5,107.5)"/><rect x="135" y="105" width="5" height="5" transform="rotate(0,137.5,107.5)"/><rect x="140" y="105" width="5" height="5" transform="rotate(0,142.5,107.5)"/><rect x="145" y="105" width="5" height="5" transform="rotate(0,147.5,107.5)"/><rect x="155" y="105" width="5" height="5" transform="rotate(0,157.5,107.5)"/><rect x="170" y="105" width="5" height="5" transform="rotate(0,172.5,107.5)"/><rect x="175" y="105" width="5" height="5" transform="rotate(0,177.5,107.5)"/><rect x="180" y="105" width="5" height="5" transform="rotate(0,182.5,107.5)"/><rect x="185" y="105" width="5" height="5" transform="rotate(0,187.5,107.5)"/><rect x="225" y="105" width="5" height="5" transform="rotate(0,227.5,107.5)"/><rect x="20" y="110" width="5" height="5" transform="rotate(0,22.5,112.5)"/><rect x="25" y="110" width="5" height="5" transform="rotate(0,27.5,112.5)"/><rect x="30" y="110" width="5" height="5" transform="rotate(0,32.5,112.5)"/><rect x="35" y="110" width="5" height="5" transform="rotate(0,37.5,112.5)"/><rect x="40" y="110" width="5" height="5" transform="rotate(0,42.5,112.5)"/><rect x="45" y="110" width="5" height="5" transform="rotate(0,47.5,112.5)"/><rect x="50" y="110" width="5" height="5" transform="rotate(0,52.5,112.5)"/><rect x="55" y="110" width="5" height="5" transform="rotate(0,57.5,112.5)"/><rect x="60" y="110" width="5" height="5" transform="rotate(0,62.5,112.5)"/><rect x="65" y="110" width="5" height="5" transform="rotate(0,67.5,112.5)"/><rect x="75" y="110" width="5" height="5" transform="rotate(0,77.5,112.5)"/><rect x="85" y="110" width="5" height="5" transform="rotate(0,87.5,112.5)"/><rect x="90" y="110" width="5" height="5" transform="rotate(0,92.5,112.5)"/><rect x="95" y="110" width="5" height="5" transform="rotate(0,97.5,112.5)"/><rect x="100" y="110" width="5" height="5" transform="rotate(0,102.5,112.5)"/><rect x="110" y="110" width="5" height="5" transform="rotate(0,112.5,112.5)"/><rect x="115" y="110" width="5" height="5" transform="rotate(0,117.5,112.5)"/><rect x="120" y="110" width="5" height="5" transform="rotate(0,122.5,112.5)"/><rect x="125" y="110" width="5" height="5" transform="rotate(0,127.5,112.5)"/><rect x="130" y="110" width="5" height="5" transform="rotate(0,132.5,112.5)"/><rect x="135" y="110" width="5" height="5" transform="rotate(0,137.5,112.5)"/><rect x="145" y="110" width="5" height="5" transform="rotate(0,147.5,112.5)"/><rect x="155" y="110" width="5" height="5" transform="rotate(0,157.5,112.5)"/><rect x="170" y="110" width="5" height="5" transform="rotate(0,172.5,112.5)"/><rect x="190" y="110" width="5" height="5" transform="rotate(0,192.5,112.5)"/><rect x="195" y="110" width="5" height="5" transform="rotate(0,197.5,112.5)"/><rect x="200" y="110" width="5" height="5" transform="rotate(0,202.5,112.5)"/><rect x="205" y="110" width="5" height="5" transform="rotate(0,207.5,112.5)"/><rect x="210" y="110" width="5" height="5" transform="rotate(0,212.5,112.5)"/><rect x="230" y="110" width="5" height="5" transform="rotate(0,232.5,112.5)"/><rect x="10" y="115" width="5" height="5" transform="rotate(0,12.5,117.5)"/><rect x="15" y="115" width="5" height="5" transform="rotate(0,17.5,117.5)"/><rect x="25" y="115" width="5" height="5" transform="rotate(0,27.5,117.5)"/><rect x="30" y="115" width="5" height="5" transform="rotate(0,32.5,117.5)"/><rect x="50" y="115" width="5" height="5" transform="rotate(0,52.5,117.5)"/><rect x="60" y="115" width="5" height="5" transform="rotate(0,62.5,117.5)"/><rect x="65" y="115" width="5" height="5" transform="rotate(0,67.5,117.5)"/><rect x="80" y="115" width="5" height="5" transform="rotate(0,82.5,117.5)"/><rect x="90" y="115" width="5" height="5" transform="rotate(0,92.5,117.5)"/><rect x="95" y="115" width="5" height="5" transform="rotate(0,97.5,117.5)"/><rect x="110" y="115" width="5" height="5" transform="rotate(0,112.5,117.5)"/><rect x="130" y="115" width="5" height="5" transform="rotate(0,132.5,117.5)"/><rect x="155" y="115" width="5" height="5" transform="rotate(0,157.5,117.5)"/><rect x="160" y="115" width="5" height="5" transform="rotate(0,162.5,117.5)"/><rect x="185" y="115" width="5" height="5" transform="rotate(0,187.5,117.5)"/><rect x="190" y="115" width="5" height="5" transform="rotate(0,192.5,117.5)"/><rect x="210" y="115" width="5" height="5" transform="rotate(0,212.5,117.5)"/><rect x="225" y="115" width="5" height="5" transform="rotate(0,227.5,117.5)"/><rect x="20" y="120" width="5" height="5" transform="rotate(0,22.5,122.5)"/><rect x="25" y="120" width="5" height="5" transform="rotate(0,27.5,122.5)"/><rect x="30" y="120" width="5" height="5" transform="rotate(0,32.5,122.5)"/><rect x="40" y="120" width="5" height="5" transform="rotate(0,42.5,122.5)"/><rect x="50" y="120" width="5" height="5" transform="rotate(0,52.5,122.5)"/><rect x="65" y="120" width="5" height="5" transform="rotate(0,67.5,122.5)"/><rect x="95" y="120" width="5" height="5" transform="rotate(0,97.5,122.5)"/><rect x="100" y="120" width="5" height="5" transform="rotate(0,102.5,122.5)"/><rect x="105" y="120" width="5" height="5" transform="rotate(0,107.5,122.5)"/><rect x="110" y="120" width="5" height="5" transform="rotate(0,112.5,122.5)"/><rect x="120" y="120" width="5" height="5" transform="rotate(0,122.5,122.5)"/><rect x="130" y="120" width="5" height="5" transform="rotate(0,132.5,122.5)"/><rect x="150" y="120" width="5" height="5" transform="rotate(0,152.5,122.5)"/><rect x="155" y="120" width="5" height="5" transform="rotate(0,157.5,122.5)"/><rect x="160" y="120" width="5" height="5" transform="rotate(0,162.5,122.5)"/><rect x="175" y="120" width="5" height="5" transform="rotate(0,177.5,122.5)"/><rect x="190" y="120" width="5" height="5" transform="rotate(0,192.5,122.5)"/><rect x="200" y="120" width="5" height="5" transform="rotate(0,202.5,122.5)"/><rect x="210" y="120" width="5" height="5" transform="rotate(0,212.5,122.5)"/><rect x="215" y="120" width="5" height="5" transform="rotate(0,217.5,122.5)"/><rect x="225" y="120" width="5" height="5" transform="rotate(0,227.5,122.5)"/><rect x="10" y="125" width="5" height="5" transform="rotate(0,12.5,127.5)"/><rect x="15" y="125" width="5" height="5" transform="rotate(0,17.5,127.5)"/><rect x="30" y="125" width="5" height="5" transform="rotate(0,32.5,127.5)"/><rect x="50" y="125" width="5" height="5" transform="rotate(0,52.5,127.5)"/><rect x="60" y="125" width="5" height="5" transform="rotate(0,62.5,127.5)"/><rect x="70" y="125" width="5" height="5" transform="rotate(0,72.5,127.5)"/><rect x="90" y="125" width="5" height="5" transform="rotate(0,92.5,127.5)"/><rect x="95" y="125" width="5" height="5" transform="rotate(0,97.5,127.5)"/><rect x="100" y="125" width="5" height="5" transform="rotate(0,102.5,127.5)"/><rect x="110" y="125" width="5" height="5" transform="rotate(0,112.5,127.5)"/><rect x="130" y="125" width="5" height="5" transform="rotate(0,132.5,127.5)"/><rect x="140" y="125" width="5" height="5" transform="rotate(0,142.5,127.5)"/><rect x="145" y="125" width="5" height="5" transform="rotate(0,147.5,127.5)"/><rect x="155" y="125" width="5" height="5" transform="rotate(0,157.5,127.5)"/><rect x="170" y="125" width="5" height="5" transform="rotate(0,172.5,127.5)"/><rect x="185" y="125" width="5" height="5" transform="rotate(0,187.5,127.5)"/><rect x="190" y="125" width="5" height="5" transform="rotate(0,192.5,127.5)"/><rect x="210" y="125" width="5" height="5" transform="rotate(0,212.5,127.5)"/><rect x="225" y="125" width="5" height="5" transform="rotate(0,227.5,127.5)"/><rect x="15" y="130" width="5" height="5" transform="rotate(0,17.5,132.5)"/><rect x="20" y="130" width="5" height="5" transform="rotate(0,22.5,132.5)"/><rect x="30" y="130" width="5" height="5" transform="rotate(0,32.5,132.5)"/><rect x="35" y="130" width="5" height="5" transform="rotate(0,37.5,132.5)"/><rect x="40" y="130" width="5" height="5" transform="rotate(0,42.5,132.5)"/><rect x="45" y="130" width="5" height="5" transform="rotate(0,47.5,132.5)"/><rect x="50" y="130" width="5" height="5" transform="rotate(0,52.5,132.5)"/><rect x="55" y="130" width="5" height="5" transform="rotate(0,57.5,132.5)"/><rect x="60" y="130" width="5" height="5" transform="rotate(0,62.5,132.5)"/><rect x="65" y="130" width="5" height="5" transform="rotate(0,67.5,132.5)"/><rect x="80" y="130" width="5" height="5" transform="rotate(0,82.5,132.5)"/><rect x="100" y="130" width="5" height="5" transform="rotate(0,102.5,132.5)"/><rect x="110" y="130" width="5" height="5" transform="rotate(0,112.5,132.5)"/><rect x="115" y="130" width="5" height="5" transform="rotate(0,117.5,132.5)"/><rect x="120" y="130" width="5" height="5" transform="rotate(0,122.5,132.5)"/><rect x="125" y="130" width="5" height="5" transform="rotate(0,127.5,132.5)"/><rect x="130" y="130" width="5" height="5" transform="rotate(0,132.5,132.5)"/><rect x="140" y="130" width="5" height="5" transform="rotate(0,142.5,132.5)"/><rect x="145" y="130" width="5" height="5" transform="rotate(0,147.5,132.5)"/><rect x="160" y="130" width="5" height="5" transform="rotate(0,162.5,132.5)"/><rect x="170" y="130" width="5" height="5" transform="rotate(0,172.5,132.5)"/><rect x="180" y="130" width="5" height="5" transform="rotate(0,182.5,132.5)"/><rect x="185" y="130" width="5" height="5" transform="rotate(0,187.5,132.5)"/><rect x="190" y="130" width="5" height="5" transform="rotate(0,192.5,132.5)"/><rect x="195" y="130" width="5" height="5" transform="rotate(0,197.5,132.5)"/><rect x="200" y="130" width="5" height="5" transform="rotate(0,202.5,132.5)"/><rect x="205" y="130" width="5" height="5" transform="rotate(0,207.5,132.5)"/><rect x="210" y="130" width="5" height="5" transform="rotate(0,212.5,132.5)"/><rect x="215" y="130" width="5" height="5" transform="rotate(0,217.5,132.5)"/><rect x="225" y="130" width="5" height="5" transform="rotate(0,227.5,132.5)"/><rect x="15" y="135" width="5" height="5" transform="rotate(0,17.5,137.5)"/><rect x="50" y="135" width="5" height="5" transform="rotate(0,52.5,137.5)"/><rect x="60" y="135" width="5" height="5" transform="rotate(0,62.5,137.5)"/><rect x="80" y="135" width="5" height="5" transform="rotate(0,82.5,137.5)"/><rect x="90" y="135" width="5" height="5" transform="rotate(0,92.5,137.5)"/><rect x="100" y="135" width="5" height="5" transform="rotate(0,102.5,137.5)"/><rect x="145" y="135" width="5" height="5" transform="rotate(0,147.5,137.5)"/><rect x="155" y="135" width="5" height="5" transform="rotate(0,157.5,137.5)"/><rect x="160" y="135" width="5" height="5" transform="rotate(0,162.5,137.5)"/><rect x="175" y="135" width="5" height="5" transform="rotate(0,177.5,137.5)"/><rect x="190" y="135" width="5" height="5" transform="rotate(0,192.5,137.5)"/><rect x="195" y="135" width="5" height="5" transform="rotate(0,197.5,137.5)"/><rect x="200" y="135" width="5" height="5" transform="rotate(0,202.5,137.5)"/><rect x="220" y="135" width="5" height="5" transform="rotate(0,222.5,137.5)"/><rect x="225" y="135" width="5" height="5" transform="rotate(0,227.5,137.5)"/><rect x="25" y="140" width="5" height="5" transform="rotate(0,27.5,142.5)"/><rect x="30" y="140" width="5" height="5" transform="rotate(0,32.5,142.5)"/><rect x="35" y="140" width="5" height="5" transform="rotate(0,37.5,142.5)"/><rect x="40" y="140" width="5" height="5" transform="rotate(0,42.5,142.5)"/><rect x="50" y="140" width="5" height="5" transform="rotate(0,52.5,142.5)"/><rect x="55" y="140" width="5" height="5" transform="rotate(0,57.5,142.5)"/><rect x="65" y="140" width="5" height="5" transform="rotate(0,67.5,142.5)"/><rect x="75" y="140" width="5" height="5" transform="rotate(0,77.5,142.5)"/><rect x="95" y="140" width="5" height="5" transform="rotate(0,97.5,142.5)"/><rect x="105" y="140" width="5" height="5" transform="rotate(0,107.5,142.5)"/><rect x="110" y="140" width="5" height="5" transform="rotate(0,112.5,142.5)"/><rect x="115" y="140" width="5" height="5" transform="rotate(0,117.5,142.5)"/><rect x="125" y="140" width="5" height="5" transform="rotate(0,127.5,142.5)"/><rect x="130" y="140" width="5" height="5" transform="rotate(0,132.5,142.5)"/><rect x="155" y="140" width="5" height="5" transform="rotate(0,157.5,142.5)"/><rect x="160" y="140" width="5" height="5" transform="rotate(0,162.5,142.5)"/><rect x="165" y="140" width="5" height="5" transform="rotate(0,167.5,142.5)"/><rect x="170" y="140" width="5" height="5" transform="rotate(0,172.5,142.5)"/><rect x="175" y="140" width="5" height="5" transform="rotate(0,177.5,142.5)"/><rect x="205" y="140" width="5" height="5" transform="rotate(0,207.5,142.5)"/><rect x="210" y="140" width="5" height="5" transform="rotate(0,212.5,142.5)"/><rect x="225" y="140" width="5" height="5" transform="rotate(0,227.5,142.5)"/><rect x="10" y="145" width="5" height="5" transform="rotate(0,12.5,147.5)"/><rect x="20" y="145" width="5" height="5" transform="rotate(0,22.5,147.5)"/><rect x="35" y="145" width="5" height="5" transform="rotate(0,37.5,147.5)"/><rect x="45" y="145" width="5" height="5" transform="rotate(0,47.5,147.5)"/><rect x="50" y="145" width="5" height="5" transform="rotate(0,52.5,147.5)"/><rect x="60" y="145" width="5" height="5" transform="rotate(0,62.5,147.5)"/><rect x="80" y="145" width="5" height="5" transform="rotate(0,82.5,147.5)"/><rect x="90" y="145" width="5" height="5" transform="rotate(0,92.5,147.5)"/><rect x="95" y="145" width="5" height="5" transform="rotate(0,97.5,147.5)"/><rect x="110" y="145" width="5" height="5" transform="rotate(0,112.5,147.5)"/><rect x="115" y="145" width="5" height="5" transform="rotate(0,117.5,147.5)"/><rect x="120" y="145" width="5" height="5" transform="rotate(0,122.5,147.5)"/><rect x="125" y="145" width="5" height="5" transform="rotate(0,127.5,147.5)"/><rect x="130" y="145" width="5" height="5" transform="rotate(0,132.5,147.5)"/><rect x="135" y="145" width="5" height="5" transform="rotate(0,137.5,147.5)"/><rect x="160" y="145" width="5" height="5" transform="rotate(0,162.5,147.5)"/><rect x="165" y="145" width="5" height="5" transform="rotate(0,167.5,147.5)"/><rect x="170" y="145" width="5" height="5" transform="rotate(0,172.5,147.5)"/><rect x="175" y="145" width="5" height="5" transform="rotate(0,177.5,147.5)"/><rect x="180" y="145" width="5" height="5" transform="rotate(0,182.5,147.5)"/><rect x="190" y="145" width="5" height="5" transform="rotate(0,192.5,147.5)"/><rect x="195" y="145" width="5" height="5" transform="rotate(0,197.5,147.5)"/><rect x="200" y="145" width="5" height="5" transform="rotate(0,202.5,147.5)"/><rect x="205" y="145" width="5" height="5" transform="rotate(0,207.5,147.5)"/><rect x="210" y="145" width="5" height="5" transform="rotate(0,212.5,147.5)"/><rect x="225" y="145" width="5" height="5" transform="rotate(0,227.5,147.5)"/><rect x="30" y="150" width="5" height="5" transform="rotate(0,32.5,152.5)"/><rect x="35" y="150" width="5" height="5" transform="rotate(0,37.5,152.5)"/><rect x="40" y="150" width="5" height="5" transform="rotate(0,42.5,152.5)"/><rect x="45" y="150" width="5" height="5" transform="rotate(0,47.5,152.5)"/><rect x="50" y="150" width="5" height="5" transform="rotate(0,52.5,152.5)"/><rect x="60" y="150" width="5" height="5" transform="rotate(0,62.5,152.5)"/><rect x="70" y="150" width="5" height="5" transform="rotate(0,72.5,152.5)"/><rect x="75" y="150" width="5" height="5" transform="rotate(0,77.5,152.5)"/><rect x="90" y="150" width="5" height="5" transform="rotate(0,92.5,152.5)"/><rect x="100" y="150" width="5" height="5" transform="rotate(0,102.5,152.5)"/><rect x="110" y="150" width="5" height="5" transform="rotate(0,112.5,152.5)"/><rect x="115" y="150" width="5" height="5" transform="rotate(0,117.5,152.5)"/><rect x="125" y="150" width="5" height="5" transform="rotate(0,127.5,152.5)"/><rect x="130" y="150" width="5" height="5" transform="rotate(0,132.5,152.5)"/><rect x="140" y="150" width="5" height="5" transform="rotate(0,142.5,152.5)"/><rect x="155" y="150" width="5" height="5" transform="rotate(0,157.5,152.5)"/><rect x="160" y="150" width="5" height="5" transform="rotate(0,162.5,152.5)"/><rect x="170" y="150" width="5" height="5" transform="rotate(0,172.5,152.5)"/><rect x="175" y="150" width="5" height="5" transform="rotate(0,177.5,152.5)"/><rect x="200" y="150" width="5" height="5" transform="rotate(0,202.5,152.5)"/><rect x="205" y="150" width="5" height="5" transform="rotate(0,207.5,152.5)"/><rect x="210" y="150" width="5" height="5" transform="rotate(0,212.5,152.5)"/><rect x="215" y="150" width="5" height="5" transform="rotate(0,217.5,152.5)"/><rect x="230" y="150" width="5" height="5" transform="rotate(0,232.5,152.5)"/><rect x="15" y="155" width="5" height="5" transform="rotate(0,17.5,157.5)"/><rect x="25" y="155" width="5" height="5" transform="rotate(0,27.5,157.5)"/><rect x="35" y="155" width="5" height="5" transform="rotate(0,37.5,157.5)"/><rect x="50" y="155" width="5" height="5" transform="rotate(0,52.5,157.5)"/><rect x="55" y="155" width="5" height="5" transform="rotate(0,57.5,157.5)"/><rect x="70" y="155" width="5" height="5" transform="rotate(0,72.5,157.5)"/><rect x="95" y="155" width="5" height="5" transform="rotate(0,97.5,157.5)"/><rect x="110" y="155" width="5" height="5" transform="rotate(0,112.5,157.5)"/><rect x="120" y="155" width="5" height="5" transform="rotate(0,122.5,157.5)"/><rect x="160" y="155" width="5" height="5" transform="rotate(0,162.5,157.5)"/><rect x="170" y="155" width="5" height="5" transform="rotate(0,172.5,157.5)"/><rect x="205" y="155" width="5" height="5" transform="rotate(0,207.5,157.5)"/><rect x="215" y="155" width="5" height="5" transform="rotate(0,217.5,157.5)"/><rect x="220" y="155" width="5" height="5" transform="rotate(0,222.5,157.5)"/><rect x="10" y="160" width="5" height="5" transform="rotate(0,12.5,162.5)"/><rect x="15" y="160" width="5" height="5" transform="rotate(0,17.5,162.5)"/><rect x="25" y="160" width="5" height="5" transform="rotate(0,27.5,162.5)"/><rect x="35" y="160" width="5" height="5" transform="rotate(0,37.5,162.5)"/><rect x="40" y="160" width="5" height="5" transform="rotate(0,42.5,162.5)"/><rect x="45" y="160" width="5" height="5" transform="rotate(0,47.5,162.5)"/><rect x="60" y="160" width="5" height="5" transform="rotate(0,62.5,162.5)"/><rect x="65" y="160" width="5" height="5" transform="rotate(0,67.5,162.5)"/><rect x="75" y="160" width="5" height="5" transform="rotate(0,77.5,162.5)"/><rect x="80" y="160" width="5" height="5" transform="rotate(0,82.5,162.5)"/><rect x="90" y="160" width="5" height="5" transform="rotate(0,92.5,162.5)"/><rect x="120" y="160" width="5" height="5" transform="rotate(0,122.5,162.5)"/><rect x="125" y="160" width="5" height="5" transform="rotate(0,127.5,162.5)"/><rect x="140" y="160" width="5" height="5" transform="rotate(0,142.5,162.5)"/><rect x="150" y="160" width="5" height="5" transform="rotate(0,152.5,162.5)"/><rect x="155" y="160" width="5" height="5" transform="rotate(0,157.5,162.5)"/><rect x="160" y="160" width="5" height="5" transform="rotate(0,162.5,162.5)"/><rect x="175" y="160" width="5" height="5" transform="rotate(0,177.5,162.5)"/><rect x="185" y="160" width="5" height="5" transform="rotate(0,187.5,162.5)"/><rect x="190" y="160" width="5" height="5" transform="rotate(0,192.5,162.5)"/><rect x="195" y="160" width="5" height="5" transform="rotate(0,197.5,162.5)"/><rect x="215" y="160" width="5" height="5" transform="rotate(0,217.5,162.5)"/><rect x="20" y="165" width="5" height="5" transform="rotate(0,22.5,167.5)"/><rect x="25" y="165" width="5" height="5" transform="rotate(0,27.5,167.5)"/><rect x="45" y="165" width="5" height="5" transform="rotate(0,47.5,167.5)"/><rect x="50" y="165" width="5" height="5" transform="rotate(0,52.5,167.5)"/><rect x="60" y="165" width="5" height="5" transform="rotate(0,62.5,167.5)"/><rect x="65" y="165" width="5" height="5" transform="rotate(0,67.5,167.5)"/><rect x="75" y="165" width="5" height="5" transform="rotate(0,77.5,167.5)"/><rect x="105" y="165" width="5" height="5" transform="rotate(0,107.5,167.5)"/><rect x="120" y="165" width="5" height="5" transform="rotate(0,122.5,167.5)"/><rect x="125" y="165" width="5" height="5" transform="rotate(0,127.5,167.5)"/><rect x="130" y="165" width="5" height="5" transform="rotate(0,132.5,167.5)"/><rect x="135" y="165" width="5" height="5" transform="rotate(0,137.5,167.5)"/><rect x="165" y="165" width="5" height="5" transform="rotate(0,167.5,167.5)"/><rect x="170" y="165" width="5" height="5" transform="rotate(0,172.5,167.5)"/><rect x="175" y="165" width="5" height="5" transform="rotate(0,177.5,167.5)"/><rect x="180" y="165" width="5" height="5" transform="rotate(0,182.5,167.5)"/><rect x="200" y="165" width="5" height="5" transform="rotate(0,202.5,167.5)"/><rect x="215" y="165" width="5" height="5" transform="rotate(0,217.5,167.5)"/><rect x="230" y="165" width="5" height="5" transform="rotate(0,232.5,167.5)"/><rect x="20" y="170" width="5" height="5" transform="rotate(0,22.5,172.5)"/><rect x="25" y="170" width="5" height="5" transform="rotate(0,27.5,172.5)"/><rect x="35" y="170" width="5" height="5" transform="rotate(0,37.5,172.5)"/><rect x="40" y="170" width="5" height="5" transform="rotate(0,42.5,172.5)"/><rect x="55" y="170" width="5" height="5" transform="rotate(0,57.5,172.5)"/><rect x="75" y="170" width="5" height="5" transform="rotate(0,77.5,172.5)"/><rect x="85" y="170" width="5" height="5" transform="rotate(0,87.5,172.5)"/><rect x="90" y="170" width="5" height="5" transform="rotate(0,92.5,172.5)"/><rect x="95" y="170" width="5" height="5" transform="rotate(0,97.5,172.5)"/><rect x="105" y="170" width="5" height="5" transform="rotate(0,107.5,172.5)"/><rect x="120" y="170" width="5" height="5" transform="rotate(0,122.5,172.5)"/><rect x="125" y="170" width="5" height="5" transform="rotate(0,127.5,172.5)"/><rect x="155" y="170" width="5" height="5" transform="rotate(0,157.5,172.5)"/><rect x="160" y="170" width="5" height="5" transform="rotate(0,162.5,172.5)"/><rect x="170" y="170" width="5" height="5" transform="rotate(0,172.5,172.5)"/><rect x="200" y="170" width="5" height="5" transform="rotate(0,202.5,172.5)"/><rect x="205" y="170" width="5" height="5" transform="rotate(0,207.5,172.5)"/><rect x="210" y="170" width="5" height="5" transform="rotate(0,212.5,172.5)"/><rect x="215" y="170" width="5" height="5" transform="rotate(0,217.5,172.5)"/><rect x="230" y="170" width="5" height="5" transform="rotate(0,232.5,172.5)"/><rect x="10" y="175" width="5" height="5" transform="rotate(0,12.5,177.5)"/><rect x="30" y="175" width="5" height="5" transform="rotate(0,32.5,177.5)"/><rect x="50" y="175" width="5" height="5" transform="rotate(0,52.5,177.5)"/><rect x="55" y="175" width="5" height="5" transform="rotate(0,57.5,177.5)"/><rect x="65" y="175" width="5" height="5" transform="rotate(0,67.5,177.5)"/><rect x="70" y="175" width="5" height="5" transform="rotate(0,72.5,177.5)"/><rect x="75" y="175" width="5" height="5" transform="rotate(0,77.5,177.5)"/><rect x="85" y="175" width="5" height="5" transform="rotate(0,87.5,177.5)"/><rect x="90" y="175" width="5" height="5" transform="rotate(0,92.5,177.5)"/><rect x="95" y="175" width="5" height="5" transform="rotate(0,97.5,177.5)"/><rect x="105" y="175" width="5" height="5" transform="rotate(0,107.5,177.5)"/><rect x="115" y="175" width="5" height="5" transform="rotate(0,117.5,177.5)"/><rect x="120" y="175" width="5" height="5" transform="rotate(0,122.5,177.5)"/><rect x="125" y="175" width="5" height="5" transform="rotate(0,127.5,177.5)"/><rect x="140" y="175" width="5" height="5" transform="rotate(0,142.5,177.5)"/><rect x="145" y="175" width="5" height="5" transform="rotate(0,147.5,177.5)"/><rect x="160" y="175" width="5" height="5" transform="rotate(0,162.5,177.5)"/><rect x="170" y="175" width="5" height="5" transform="rotate(0,172.5,177.5)"/><rect x="175" y="175" width="5" height="5" transform="rotate(0,177.5,177.5)"/><rect x="190" y="175" width="5" height="5" transform="rotate(0,192.5,177.5)"/><rect x="195" y="175" width="5" height="5" transform="rotate(0,197.5,177.5)"/><rect x="205" y="175" width="5" height="5" transform="rotate(0,207.5,177.5)"/><rect x="220" y="175" width="5" height="5" transform="rotate(0,222.5,177.5)"/><rect x="225" y="175" width="5" height="5" transform="rotate(0,227.5,177.5)"/><rect x="30" y="180" width="5" height="5" transform="rotate(0,32.5,182.5)"/><rect x="40" y="180" width="5" height="5" transform="rotate(0,42.5,182.5)"/><rect x="55" y="180" width="5" height="5" transform="rotate(0,57.5,182.5)"/><rect x="60" y="180" width="5" height="5" transform="rotate(0,62.5,182.5)"/><rect x="65" y="180" width="5" height="5" transform="rotate(0,67.5,182.5)"/><rect x="75" y="180" width="5" height="5" transform="rotate(0,77.5,182.5)"/><rect x="85" y="180" width="5" height="5" transform="rotate(0,87.5,182.5)"/><rect x="95" y="180" width="5" height="5" transform="rotate(0,97.5,182.5)"/><rect x="110" y="180" width="5" height="5" transform="rotate(0,112.5,182.5)"/><rect x="130" y="180" width="5" height="5" transform="rotate(0,132.5,182.5)"/><rect x="135" y="180" width="5" height="5" transform="rotate(0,137.5,182.5)"/><rect x="140" y="180" width="5" height="5" transform="rotate(0,142.5,182.5)"/><rect x="145" y="180" width="5" height="5" transform="rotate(0,147.5,182.5)"/><rect x="150" y="180" width="5" height="5" transform="rotate(0,152.5,182.5)"/><rect x="160" y="180" width="5" height="5" transform="rotate(0,162.5,182.5)"/><rect x="175" y="180" width="5" height="5" transform="rotate(0,177.5,182.5)"/><rect x="195" y="180" width="5" height="5" transform="rotate(0,197.5,182.5)"/><rect x="205" y="180" width="5" height="5" transform="rotate(0,207.5,182.5)"/><rect x="210" y="180" width="5" height="5" transform="rotate(0,212.5,182.5)"/><rect x="215" y="180" width="5" height="5" transform="rotate(0,217.5,182.5)"/><rect x="220" y="180" width="5" height="5" transform="rotate(0,222.5,182.5)"/><rect x="225" y="180" width="5" height="5" transform="rotate(0,227.5,182.5)"/><rect x="15" y="185" width="5" height="5" transform="rotate(0,17.5,187.5)"/><rect x="20" y="185" width="5" height="5" transform="rotate(0,22.5,187.5)"/><rect x="25" y="185" width="5" height="5" transform="rotate(0,27.5,187.5)"/><rect x="30" y="185" width="5" height="5" transform="rotate(0,32.5,187.5)"/><rect x="55" y="185" width="5" height="5" transform="rotate(0,57.5,187.5)"/><rect x="65" y="185" width="5" height="5" transform="rotate(0,67.5,187.5)"/><rect x="75" y="185" width="5" height="5" transform="rotate(0,77.5,187.5)"/><rect x="85" y="185" width="5" height="5" transform="rotate(0,87.5,187.5)"/><rect x="120" y="185" width="5" height="5" transform="rotate(0,122.5,187.5)"/><rect x="130" y="185" width="5" height="5" transform="rotate(0,132.5,187.5)"/><rect x="135" y="185" width="5" height="5" transform="rotate(0,137.5,187.5)"/><rect x="155" y="185" width="5" height="5" transform="rotate(0,157.5,187.5)"/><rect x="160" y="185" width="5" height="5" transform="rotate(0,162.5,187.5)"/><rect x="165" y="185" width="5" height="5" transform="rotate(0,167.5,187.5)"/><rect x="170" y="185" width="5" height="5" transform="rotate(0,172.5,187.5)"/><rect x="175" y="185" width="5" height="5" transform="rotate(0,177.5,187.5)"/><rect x="180" y="185" width="5" height="5" transform="rotate(0,182.5,187.5)"/><rect x="190" y="185" width="5" height="5" transform="rotate(0,192.5,187.5)"/><rect x="200" y="185" width="5" height="5" transform="rotate(0,202.5,187.5)"/><rect x="210" y="185" width="5" height="5" transform="rotate(0,212.5,187.5)"/><rect x="215" y="185" width="5" height="5" transform="rotate(0,217.5,187.5)"/><rect x="225" y="185" width="5" height="5" transform="rotate(0,227.5,187.5)"/><rect x="10" y="190" width="5" height="5" transform="rotate(0,12.5,192.5)"/><rect x="25" y="190" width="5" height="5" transform="rotate(0,27.5,192.5)"/><rect x="30" y="190" width="5" height="5" transform="rotate(0,32.5,192.5)"/><rect x="40" y="190" width="5" height="5" transform="rotate(0,42.5,192.5)"/><rect x="45" y="190" width="5" height="5" transform="rotate(0,47.5,192.5)"/><rect x="50" y="190" width="5" height="5" transform="rotate(0,52.5,192.5)"/><rect x="65" y="190" width="5" height="5" transform="rotate(0,67.5,192.5)"/><rect x="85" y="190" width="5" height="5" transform="rotate(0,87.5,192.5)"/><rect x="90" y="190" width="5" height="5" transform="rotate(0,92.5,192.5)"/><rect x="95" y="190" width="5" height="5" transform="rotate(0,97.5,192.5)"/><rect x="105" y="190" width="5" height="5" transform="rotate(0,107.5,192.5)"/><rect x="110" y="190" width="5" height="5" transform="rotate(0,112.5,192.5)"/><rect x="115" y="190" width="5" height="5" transform="rotate(0,117.5,192.5)"/><rect x="120" y="190" width="5" height="5" transform="rotate(0,122.5,192.5)"/><rect x="125" y="190" width="5" height="5" transform="rotate(0,127.5,192.5)"/><rect x="130" y="190" width="5" height="5" transform="rotate(0,132.5,192.5)"/><rect x="140" y="190" width="5" height="5" transform="rotate(0,142.5,192.5)"/><rect x="145" y="190" width="5" height="5" transform="rotate(0,147.5,192.5)"/><rect x="160" y="190" width="5" height="5" transform="rotate(0,162.5,192.5)"/><rect x="170" y="190" width="5" height="5" transform="rotate(0,172.5,192.5)"/><rect x="190" y="190" width="5" height="5" transform="rotate(0,192.5,192.5)"/><rect x="195" y="190" width="5" height="5" transform="rotate(0,197.5,192.5)"/><rect x="200" y="190" width="5" height="5" transform="rotate(0,202.5,192.5)"/><rect x="205" y="190" width="5" height="5" transform="rotate(0,207.5,192.5)"/><rect x="210" y="190" width="5" height="5" transform="rotate(0,212.5,192.5)"/><rect x="215" y="190" width="5" height="5" transform="rotate(0,217.5,192.5)"/><rect x="230" y="190" width="5" height="5" transform="rotate(0,232.5,192.5)"/><rect x="50" y="195" width="5" height="5" transform="rotate(0,52.5,197.5)"/><rect x="55" y="195" width="5" height="5" transform="rotate(0,57.5,197.5)"/><rect x="60" y="195" width="5" height="5" transform="rotate(0,62.5,197.5)"/><rect x="70" y="195" width="5" height="5" transform="rotate(0,72.5,197.5)"/><rect x="75" y="195" width="5" height="5" transform="rotate(0,77.5,197.5)"/><rect x="85" y="195" width="5" height="5" transform="rotate(0,87.5,197.5)"/><rect x="90" y="195" width="5" height="5" transform="rotate(0,92.5,197.5)"/><rect x="95" y="195" width="5" height="5" transform="rotate(0,97.5,197.5)"/><rect x="100" y="195" width="5" height="5" transform="rotate(0,102.5,197.5)"/><rect x="105" y="195" width="5" height="5" transform="rotate(0,107.5,197.5)"/><rect x="110" y="195" width="5" height="5" transform="rotate(0,112.5,197.5)"/><rect x="130" y="195" width="5" height="5" transform="rotate(0,132.5,197.5)"/><rect x="135" y="195" width="5" height="5" transform="rotate(0,137.5,197.5)"/><rect x="140" y="195" width="5" height="5" transform="rotate(0,142.5,197.5)"/><rect x="145" y="195" width="5" height="5" transform="rotate(0,147.5,197.5)"/><rect x="150" y="195" width="5" height="5" transform="rotate(0,152.5,197.5)"/><rect x="155" y="195" width="5" height="5" transform="rotate(0,157.5,197.5)"/><rect x="160" y="195" width="5" height="5" transform="rotate(0,162.5,197.5)"/><rect x="165" y="195" width="5" height="5" transform="rotate(0,167.5,197.5)"/><rect x="175" y="195" width="5" height="5" transform="rotate(0,177.5,197.5)"/><rect x="190" y="195" width="5" height="5" transform="rotate(0,192.5,197.5)"/><rect x="210" y="195" width="5" height="5" transform="rotate(0,212.5,197.5)"/><rect x="220" y="195" width="5" height="5" transform="rotate(0,222.5,197.5)"/><rect x="225" y="195" width="5" height="5" transform="rotate(0,227.5,197.5)"/><rect x="60" y="200" width="5" height="5" transform="rotate(0,62.5,202.5)"/><rect x="75" y="200" width="5" height="5" transform="rotate(0,77.5,202.5)"/><rect x="80" y="200" width="5" height="5" transform="rotate(0,82.5,202.5)"/><rect x="95" y="200" width="5" height="5" transform="rotate(0,97.5,202.5)"/><rect x="110" y="200" width="5" height="5" transform="rotate(0,112.5,202.5)"/><rect x="120" y="200" width="5" height="5" transform="rotate(0,122.5,202.5)"/><rect x="130" y="200" width="5" height="5" transform="rotate(0,132.5,202.5)"/><rect x="135" y="200" width="5" height="5" transform="rotate(0,137.5,202.5)"/><rect x="140" y="200" width="5" height="5" transform="rotate(0,142.5,202.5)"/><rect x="160" y="200" width="5" height="5" transform="rotate(0,162.5,202.5)"/><rect x="165" y="200" width="5" height="5" transform="rotate(0,167.5,202.5)"/><rect x="185" y="200" width="5" height="5" transform="rotate(0,187.5,202.5)"/><rect x="190" y="200" width="5" height="5" transform="rotate(0,192.5,202.5)"/><rect x="200" y="200" width="5" height="5" transform="rotate(0,202.5,202.5)"/><rect x="210" y="200" width="5" height="5" transform="rotate(0,212.5,202.5)"/><rect x="220" y="200" width="5" height="5" transform="rotate(0,222.5,202.5)"/><rect x="225" y="200" width="5" height="5" transform="rotate(0,227.5,202.5)"/><rect x="55" y="205" width="5" height="5" transform="rotate(0,57.5,207.5)"/><rect x="60" y="205" width="5" height="5" transform="rotate(0,62.5,207.5)"/><rect x="65" y="205" width="5" height="5" transform="rotate(0,67.5,207.5)"/><rect x="80" y="205" width="5" height="5" transform="rotate(0,82.5,207.5)"/><rect x="90" y="205" width="5" height="5" transform="rotate(0,92.5,207.5)"/><rect x="105" y="205" width="5" height="5" transform="rotate(0,107.5,207.5)"/><rect x="110" y="205" width="5" height="5" transform="rotate(0,112.5,207.5)"/><rect x="130" y="205" width="5" height="5" transform="rotate(0,132.5,207.5)"/><rect x="145" y="205" width="5" height="5" transform="rotate(0,147.5,207.5)"/><rect x="160" y="205" width="5" height="5" transform="rotate(0,162.5,207.5)"/><rect x="165" y="205" width="5" height="5" transform="rotate(0,167.5,207.5)"/><rect x="170" y="205" width="5" height="5" transform="rotate(0,172.5,207.5)"/><rect x="185" y="205" width="5" height="5" transform="rotate(0,187.5,207.5)"/><rect x="190" y="205" width="5" height="5" transform="rotate(0,192.5,207.5)"/><rect x="210" y="205" width="5" height="5" transform="rotate(0,212.5,207.5)"/><rect x="225" y="205" width="5" height="5" transform="rotate(0,227.5,207.5)"/><rect x="230" y="205" width="5" height="5" transform="rotate(0,232.5,207.5)"/><rect x="50" y="210" width="5" height="5" transform="rotate(0,52.5,212.5)"/><rect x="55" y="210" width="5" height="5" transform="rotate(0,57.5,212.5)"/><rect x="70" y="210" width="5" height="5" transform="rotate(0,72.5,212.5)"/><rect x="90" y="210" width="5" height="5" transform="rotate(0,92.5,212.5)"/><rect x="95" y="210" width="5" height="5" transform="rotate(0,97.5,212.5)"/><rect x="100" y="210" width="5" height="5" transform="rotate(0,102.5,212.5)"/><rect x="110" y="210" width="5" height="5" transform="rotate(0,112.5,212.5)"/><rect x="115" y="210" width="5" height="5" transform="rotate(0,117.5,212.5)"/><rect x="120" y="210" width="5" height="5" transform="rotate(0,122.5,212.5)"/><rect x="125" y="210" width="5" height="5" transform="rotate(0,127.5,212.5)"/><rect x="130" y="210" width="5" height="5" transform="rotate(0,132.5,212.5)"/><rect x="135" y="210" width="5" height="5" transform="rotate(0,137.5,212.5)"/><rect x="155" y="210" width="5" height="5" transform="rotate(0,157.5,212.5)"/><rect x="165" y="210" width="5" height="5" transform="rotate(0,167.5,212.5)"/><rect x="170" y="210" width="5" height="5" transform="rotate(0,172.5,212.5)"/><rect x="175" y="210" width="5" height="5" transform="rotate(0,177.5,212.5)"/><rect x="180" y="210" width="5" height="5" transform="rotate(0,182.5,212.5)"/><rect x="185" y="210" width="5" height="5" transform="rotate(0,187.5,212.5)"/><rect x="190" y="210" width="5" height="5" transform="rotate(0,192.5,212.5)"/><rect x="195" y="210" width="5" height="5" transform="rotate(0,197.5,212.5)"/><rect x="200" y="210" width="5" height="5" transform="rotate(0,202.5,212.5)"/><rect x="205" y="210" width="5" height="5" transform="rotate(0,207.5,212.5)"/><rect x="210" y="210" width="5" height="5" transform="rotate(0,212.5,212.5)"/><rect x="230" y="210" width="5" height="5" transform="rotate(0,232.5,212.5)"/><rect x="55" y="215" width="5" height="5" transform="rotate(0,57.5,217.5)"/><rect x="60" y="215" width="5" height="5" transform="rotate(0,62.5,217.5)"/><rect x="65" y="215" width="5" height="5" transform="rotate(0,67.5,217.5)"/><rect x="70" y="215" width="5" height="5" transform="rotate(0,72.5,217.5)"/><rect x="80" y="215" width="5" height="5" transform="rotate(0,82.5,217.5)"/><rect x="95" y="215" width="5" height="5" transform="rotate(0,97.5,217.5)"/><rect x="100" y="215" width="5" height="5" transform="rotate(0,102.5,217.5)"/><rect x="130" y="215" width="5" height="5" transform="rotate(0,132.5,217.5)"/><rect x="135" y="215" width="5" height="5" transform="rotate(0,137.5,217.5)"/><rect x="140" y="215" width="5" height="5" transform="rotate(0,142.5,217.5)"/><rect x="145" y="215" width="5" height="5" transform="rotate(0,147.5,217.5)"/><rect x="155" y="215" width="5" height="5" transform="rotate(0,157.5,217.5)"/><rect x="160" y="215" width="5" height="5" transform="rotate(0,162.5,217.5)"/><rect x="170" y="215" width="5" height="5" transform="rotate(0,172.5,217.5)"/><rect x="185" y="215" width="5" height="5" transform="rotate(0,187.5,217.5)"/><rect x="195" y="215" width="5" height="5" transform="rotate(0,197.5,217.5)"/><rect x="200" y="215" width="5" height="5" transform="rotate(0,202.5,217.5)"/><rect x="205" y="215" width="5" height="5" transform="rotate(0,207.5,217.5)"/><rect x="210" y="215" width="5" height="5" transform="rotate(0,212.5,217.5)"/><rect x="220" y="215" width="5" height="5" transform="rotate(0,222.5,217.5)"/><rect x="230" y="215" width="5" height="5" transform="rotate(0,232.5,217.5)"/><rect x="60" y="220" width="5" height="5" transform="rotate(0,62.5,222.5)"/><rect x="80" y="220" width="5" height="5" transform="rotate(0,82.5,222.5)"/><rect x="90" y="220" width="5" height="5" transform="rotate(0,92.5,222.5)"/><rect x="105" y="220" width="5" height="5" transform="rotate(0,107.5,222.5)"/><rect x="110" y="220" width="5" height="5" transform="rotate(0,112.5,222.5)"/><rect x="115" y="220" width="5" height="5" transform="rotate(0,117.5,222.5)"/><rect x="120" y="220" width="5" height="5" transform="rotate(0,122.5,222.5)"/><rect x="140" y="220" width="5" height="5" transform="rotate(0,142.5,222.5)"/><rect x="145" y="220" width="5" height="5" transform="rotate(0,147.5,222.5)"/><rect x="155" y="220" width="5" height="5" transform="rotate(0,157.5,222.5)"/><rect x="160" y="220" width="5" height="5" transform="rotate(0,162.5,222.5)"/><rect x="165" y="220" width="5" height="5" transform="rotate(0,167.5,222.5)"/><rect x="175" y="220" width="5" height="5" transform="rotate(0,177.5,222.5)"/><rect x="210" y="220" width="5" height="5" transform="rotate(0,212.5,222.5)"/><rect x="225" y="220" width="5" height="5" transform="rotate(0,227.5,222.5)"/><rect x="50" y="225" width="5" height="5" transform="rotate(0,52.5,227.5)"/><rect x="55" y="225" width="5" height="5" transform="rotate(0,57.5,227.5)"/><rect x="70" y="225" width="5" height="5" transform="rotate(0,72.5,227.5)"/><rect x="85" y="225" width="5" height="5" transform="rotate(0,87.5,227.5)"/><rect x="105" y="225" width="5" height="5" transform="rotate(0,107.5,227.5)"/><rect x="110" y="225" width="5" height="5" transform="rotate(0,112.5,227.5)"/><rect x="115" y="225" width="5" height="5" transform="rotate(0,117.5,227.5)"/><rect x="130" y="225" width="5" height="5" transform="rotate(0,132.5,227.5)"/><rect x="135" y="225" width="5" height="5" transform="rotate(0,137.5,227.5)"/><rect x="145" y="225" width="5" height="5" transform="rotate(0,147.5,227.5)"/><rect x="160" y="225" width="5" height="5" transform="rotate(0,162.5,227.5)"/><rect x="170" y="225" width="5" height="5" transform="rotate(0,172.5,227.5)"/><rect x="195" y="225" width="5" height="5" transform="rotate(0,197.5,227.5)"/><rect x="205" y="225" width="5" height="5" transform="rotate(0,207.5,227.5)"/><rect x="210" y="225" width="5" height="5" transform="rotate(0,212.5,227.5)"/><rect x="215" y="225" width="5" height="5" transform="rotate(0,217.5,227.5)"/><rect x="60" y="230" width="5" height="5" transform="rotate(0,62.5,232.5)"/><rect x="70" y="230" width="5" height="5" transform="rotate(0,72.5,232.5)"/><rect x="80" y="230" width="5" height="5" transform="rotate(0,82.5,232.5)"/><rect x="95" y="230" width="5" height="5" transform="rotate(0,97.5,232.5)"/><rect x="110" y="230" width="5" height="5" transform="rotate(0,112.5,232.5)"/><rect x="115" y="230" width="5" height="5" transform="rotate(0,117.5,232.5)"/><rect x="125" y="230" width="5" height="5" transform="rotate(0,127.5,232.5)"/><rect x="130" y="230" width="5" height="5" transform="rotate(0,132.5,232.5)"/><rect x="140" y="230" width="5" height="5" transform="rotate(0,142.5,232.5)"/><rect x="145" y="230" width="5" height="5" transform="rotate(0,147.5,232.5)"/><rect x="155" y="230" width="5" height="5" transform="rotate(0,157.5,232.5)"/><rect x="170" y="230" width="5" height="5" transform="rotate(0,172.5,232.5)"/><rect x="180" y="230" width="5" height="5" transform="rotate(0,182.5,232.5)"/><rect x="190" y="230" width="5" height="5" transform="rotate(0,192.5,232.5)"/><rect x="205" y="230" width="5" height="5" transform="rotate(0,207.5,232.5)"/><rect x="230" y="230" width="5" height="5" transform="rotate(0,232.5,232.5)"/></g></svg>